<?xml version="1.0" encoding="utf-8"?>
<!-- Generator: Adobe Illustrator 21.1.0, SVG Export Plug-In . SVG Version: 6.00 Build 0)  -->
<svg version="1.1" id="Ebene_1" xmlns="http://www.w3.org/2000/svg" xmlns:xlink="http://www.w3.org/1999/xlink" x="0px" y="0px"
	 viewBox="0 0 2880 1800" style="enable-background:new 0 0 2880 1800;" xml:space="preserve">
<style type="text/css">
	.st0{fill:#2B2B2B;}
	.st1{fill:none;stroke:#F7931E;stroke-width:3;stroke-miterlimit:10;}
	.st2{opacity:0.15;}
	.st3{opacity:0.21;fill:none;stroke:#FFFFFF;stroke-width:3;stroke-miterlimit:10;enable-background:new    ;}
	.st4{opacity:0.21;}
	.st5{fill:#FFFFFF;}
	.st6{opacity:0.21;fill:#191919;stroke:#FFFFFF;stroke-miterlimit:10;enable-background:new    ;}
	.st7{opacity:0.21;fill:#FFFFFF;stroke:#FFFFFF;stroke-miterlimit:10;enable-background:new    ;}
	.st8{fill:#F2F2F2;stroke:#CCCCCC;stroke-width:6;stroke-miterlimit:10;}
	.st9{fill:none;}
	.st10{font-family:'Krungthep';}
	.st11{font-size:81.8109px;}
	.st12{opacity:0.33;fill:#282828;stroke:#FFFFFF;stroke-miterlimit:10;enable-background:new    ;}
	.st13{fill:#FCFCFC;}
	.st14{font-size:49.3953px;}
	.st15{font-size:43.2208px;}
	.st16{fill:#F7931E;}
	.st17{font-size:109px;}
</style>
<g>
	<rect x="-90" y="-28" class="st0" width="2970" height="1876"/>
</g>
<path class="st1" d="M446.3,711.8"/>
<g class="st2">
	<path class="st3" d="M1123.6-28.5"/>
	<polyline class="st3" points="1123.6,-28.5 896.9,-28.5 346.4,925 896.9,1878.4 1997.8,1878.4 2548.3,925 1997.8,-28.5 
		1303.5,-28.5 	"/>
	<polyline class="st3" points="1355.2,1800 1952.9,1800 2458.4,924.4 1952.9,48.8 941.8,48.8 705.5,458.1 	"/>
	<polyline class="st3" points="615.4,487.7 683.4,525.1 457.8,915.8 963.3,1791.4 1291.1,1791.4 1290.6,1848 	"/>
	<polyline class="st3" points="2283,1079.9 2372.8,924.4 1910.1,122.9 984.6,122.9 521.9,924.4 984.6,1725.9 1910.1,1725.9 
		2240.5,1153.5 2303.3,1193 	"/>
	<polyline class="st3" points="1786.5,200.7 1029.5,200.7 611.7,924.4 1029.5,1648.1 1865.2,1648.1 2283,924.4 1865.2,200.7 	"/>
	<polyline class="st3" points="1182.5,280.8 1084.6,280.8 716,919.3 1084.6,1557.8 1640.5,1557.8 	"/>
	<polyline class="st3" points="1737.3,1557.8 1821.9,1557.8 2190.5,919.3 1821.9,280.8 1269.6,280.8 	"/>
	<polyline class="st3" points="1755.9,1356 1447.4,1534.1 921.5,1230.5 921.5,623.2 1447.4,319.6 1973.3,623.2 1973.3,1230.5 
		1844.3,1305 1878.2,1363.1 	"/>
	<polyline class="st3" points="1552.3,461.9 1903.4,666.7 1905.7,1193.4 1453.1,1454.8 998.1,1189.4 995.7,662.6 1448.4,401.3 
		1469.7,413.7 1521,384 	"/>
	<path class="st3" d="M1857.5,838.7"/>
	<polyline class="st3" points="1836,847.3 1836,703.8 1449.5,480.6 1063.1,703.8 1063.1,1150 1184.1,1219.8 1449.5,1373.1 
		1836,1150 1836,919.3 1906.7,919.3 	"/>
	<path class="st3" d="M1204.7,707.4"/>
	<polyline class="st3" points="1204.7,707.4 1155.3,736 1155.3,1100.6 1471,1282.9 1786.8,1100.6 1786.8,736 1471,553.7 
		1275.7,666.5 1261.9,642.7 	"/>
	<path class="st3" d="M1242.3,810.8"/>
	<polyline class="st3" points="1236.2,822.6 1180.2,918.3 1325.6,1170.1 1616.4,1170.1 1761.8,918.3 1616.4,666.5 1325.6,666.5 
		1271.7,759.8 	"/>
	<path class="st3" d="M1675,930.6"/>
	<g class="st4">
		<polygon class="st5" points="1435.6,991 1396.9,924.1 1435.6,857.1 1512.9,857.1 1551.5,924.1 1512.9,991 		"/>
		<path class="st5" d="M1512.6,857.6L1551,924l-38.4,66.4h-76.7l-38.4-66.4l38.4-66.4H1512.6 M1513.2,856.6h-77.9l-38.9,67.4
			l38.9,67.4h77.9l38.9-67.4L1513.2,856.6L1513.2,856.6z"/>
	</g>
	<line class="st3" x1="798.8" y1="252.9" x2="819.4" y2="265.8"/>
	<circle class="st6" cx="1076.4" cy="163" r="24.4"/>
	<line class="st3" x1="1870.1" y1="363.4" x2="1888.1" y2="353.1"/>
	<line class="st3" x1="1944.6" y1="378.8" x2="1962.6" y2="368.6"/>
	<line class="st3" x1="2011.4" y1="497.1" x2="2029.4" y2="486.8"/>
	<line class="st3" x1="1926.6" y1="461.1" x2="1944.6" y2="450.8"/>
	<line class="st3" x1="1179.2" y1="281.2" x2="1179.2" y2="250.3"/>
	<line class="st3" x1="1218.2" y1="1197.8" x2="1209.5" y2="1213.5"/>
	<line class="st3" x1="1318.5" y1="1192.6" x2="1309.7" y2="1208.4"/>
	<line class="st3" x1="1354.4" y1="1280" x2="1345.7" y2="1295.7"/>
	<circle class="st7" cx="1212.6" cy="-78.5" r="24.4"/>
</g>
<polygon class="st8" points="1548.3,803.2 1401.2,803.2 1327.7,930.6 1401.2,1057.9 1548.3,1057.9 1621.8,930.6 "/>
<rect x="1370.4" y="899.3" class="st9" width="281.1" height="84.6"/>
<text transform="matrix(1 0 0 1 1370.3569 960.6406)" class="st10 st11">PLAY</text>
<polyline class="st12" points="153,75.7 360.9,75.7 360.9,469.3 86.2,469.3 86.2,75.7 114.1,75.7 "/>
<rect x="123.5" y="389.5" class="st9" width="197.4" height="136"/>
<text transform="matrix(1 0 0 1 123.4595 426.5078)" class="st13 st10 st14">ma</text>
<text transform="matrix(1 0 0 1 205.7595 426.5078)" class="st5 st10 st14">ze</text>
<text transform="matrix(1 0 0 1 271.5595 426.5078)" class="st5 st10 st15"> it</text>
<g>
	<g>
		<path class="st5" d="M202.5,164.5c-1.1,2.3-1.8,4.6-3.5,6.6c-0.7,0.9-1.5,1.7-2.4,2.4c-0.7,0.6-1.5,1-2.1,1.7
			c-1.2,0-2.2,0.8-3,1.7c-1.7,1.9-3.5,4.3-6.3,4.3c-2.6,0-4.6-2.1-6.4-3.7c-1.7-1.5-3.4-2.7-5.4-3.6c-0.1,0-0.2-0.1-0.3-0.1
			c-0.1-0.1-0.1-0.1-0.2-0.1c-3.5-1.4-7.5-1.8-11.1-0.8c-0.3-1.5-1.7-3.4-3.4-3.2c-0.5,0.1-0.8,0.7-0.3,1c1,0.6,2.1,0.8,2.4,2.2
			c0.4,1.3-0.5,2.6-1.8,2.9c-0.5,0.1-0.4,1,0.1,1c1.5-0.2,2.6-1.4,2.9-2.9c3.6-0.6,7.2-0.5,10.6,0.9c0.9,2.1,0.2,4.5-1.6,5.9
			c-0.4,0.3,0.1,1,0.5,0.7c2-1.3,2.9-3.7,2.5-6l0,0c3.3,1.7,5.4,5,8.8,6.5c3.1,1.3,5.9,0,8.1-2.2c0.7-0.7,1.2-1.5,1.9-2.1
			c0.6-0.5,2.3-0.7,2.9-0.2c0.4,0.3,0.7,1.6,0.8,2.1c0.7,2.6,0.5,5.2-0.3,7.7c-0.3,0.8,1,1.2,1.3,0.4c0.8-2.3,1-4.7,0.6-7.1
			c-0.3-1.5-0.8-3.8-2.2-4.8c1.8-0.8,3.5-2.8,4.5-4.1c1.5-1.9,3-4.3,3.3-6.8C203.7,164.2,202.8,164,202.5,164.5z"/>
		<path class="st5" d="M214,280.3c2.7-1.2,3.8-6,4.3-8.5c1.1-5.9,0.9-11.9,0.7-17.8c-0.1-2.6-0.2-5.2-1.2-7.7
			c-0.5-1.1-0.7-1.7-0.4-3c0.1-0.7,0.5-1.3,0.7-2c0.4-1.3,0.7-2.7,0.9-4.1c0.7-5.2,0.1-11.1-2.5-15.8c-0.2-0.3-0.3-0.6-0.5-0.9
			c3.8-2.5,4.1-7.7,2-11.4c-0.2-0.4-0.5-0.8-0.8-1.1c5.4-5.8,4.2-14.8-1.7-19.6c2.2-0.9,3.8-3,4.2-5.4c0.6-3.3-1-6.4-3-8.8
			c-0.1-0.1-0.1-0.1-0.2-0.2c2.6-3.9,2.9-9.1,0.2-13.4c-1.6-2.5-3.9-4.1-6.5-5.1c0.9-0.1,1.9-0.3,2.7-0.6c5.2-1.8,5.7-7.4,4.9-12
			c-0.4-2.5-1-5.3-2.8-7.1c-1.8-1.9-4.8-2.3-7.3-2.5c-2.6-0.2-5.7,0.6-6.8,3.2c-0.3,0.6-0.3,1.2-0.3,1.9c-2.5-1.6-5.3-3-8.2-3.4
			c-3.5-0.5-7,0.2-10.2,1.5s-7.4,3.6-9.1,6.9c-4.7-3.7-11.5,0.1-10.8,6c-8.5-0.2-15.9,7.4-14.3,16.1c-1.5,0.1-3,0.4-4.4,1
			c-5.2,2.3-7.9,9.1-5.6,14.4l0,0c-8,3.8-10.2,14.6-4.4,21.5c-2.1,1.1-3.5,3.4-4.3,5.7c-0.6,2-1.2,4.3-0.8,6.3
			c0.2,0.9,0.6,3,1.6,3.6c-2.2,1.7-3.8,4-4.2,7.2c-0.7,4.6,0.9,9.7,5.6,11.3c-1.2,1.5-1.6,3.2-1.9,5c-0.3,2.1-0.6,4.3-0.3,6.4
			c0.5,3.6,2.9,6.2,6.4,7.1c0.2,0,0.4,0.1,0.5,0.1c-3.2,4.5-1.6,10.5,3.3,12.9c-1.8,4.6-2.7,11.4,0.4,15.6c1.4,1.9,4.2,2.8,6.2,1.9
			c-0.5,2.2-0.5,4.6,0.9,6.5c0.6,0.8,1.3,1.3,2.1,1.7c-0.8,3.9,1.7,7.4,5.6,8c-1.3,5,1.3,11.3,5.5,14.1c3.4,2.3,7.8,1.4,10.1-1.6
			c0.5,4.2,2.9,8.1,6.7,10s8.6,1.3,11.9-1.3c0.3,3.1,1.7,6,4,8c2,1.7,4.9,2.5,7,0.9c0.7,2.5,3.2,4.4,5.5,5.4
			c3.2,1.4,7.1,1.6,10.1-0.6c6.4-4.7,4.9-14.9,1-20.7c-0.1-0.1-0.2-0.2-0.3-0.2c2.6-3.7,3.5-8.4,3.7-12.9c0.3-5.8,0.1-12.3-2-17.7
			C217.1,282.6,215.7,281.2,214,280.3z M218.6,303.3c-0.3,4.4-1.3,9.1-4.2,12.6c-3.1,3.7-7.9,5.1-12.4,6.5c-0.7,0.2-0.6,1.4,0.2,1.3
			c2.6-0.2,4.8,1.3,5.5,3.8c0.2,0.8,1.6,0.5,1.3-0.4c-0.6-2-2-3.6-3.8-4.3c3.8-1.3,7.6-2.9,10.2-6.1c3.2,4.9,4.8,13.2,0.3,17.8
			c-4.3,4.4-12.9,2-15.1-3.5c0.3-0.6-0.6-1.3-1.1-0.7c-2.2,2.3-5.3,0.4-6.9-1.6c-1.7-2.1-2.5-4.6-2.5-7.3c0-0.6-0.8-0.9-1.2-0.5
			c-3,3.3-7.9,4-11.8,1.9c-3.9-2.1-5.9-6.7-5.7-11.1c0-0.8-1.1-0.9-1.3-0.2c-1.6,4.7-7.1,5.4-10.5,2.2c-3.1-3.1-4.9-8.2-3.5-12.5
			c0.1-0.4-0.2-0.8-0.6-0.8c-3.5,0-6.1-3-5.7-6.4c1.9,0.5,4,0.1,5.7-0.9c1.2-0.7,2.2-1.6,3.1-2.6c-1.1,4.3-0.2,8.5,3.5,11.4
			c0.5,0.4,1.1-0.2,0.7-0.7c-1.6-1.9-3.1-3.4-3.2-6c-0.1-2,0.1-4,0.9-5.9c1.6-4.3,5.2-5.9,9.2-7.3c0.6-0.2,0.6-1.3-0.2-1.2
			c-2.6,0.3-5.1,1.6-7.1,3.4c1.4-3.9,1.9-8.3,1.3-12c0-0.4-0.4-0.5-0.7-0.5v-0.1c1.6-0.1,3.2-0.3,4.8-0.9c2.6-0.9,4.8-2.3,6.7-4.1
			c1.2,6.9,10.3,7.3,14.2,11.9c2.2,2.6,3.6,5.7,6.6,7.7c2.8,1.8,6.3,2.8,9.5,3.3c0.1,0,0.2,0,0.3,0c-1,1.6-1,3.8-0.6,5.6
			c0.1,0.6,1,0.4,1-0.1c0-1.5-0.2-3.2,0.6-4.6c1-1.8,3.1-1.7,4.8-1.6c0.8,0.1,0.9-1.2,0.2-1.3l-0.5-0.1c-0.1,0-0.2,0-0.3,0
			c-1.7-0.1-3.5,0.1-4.7,1.5c0-0.3-0.1-0.5-0.5-0.6c-3.1-1-6.3-1.4-9.1-3.2c-2.8-1.8-4-4.8-6.1-7.2c-4-4.8-12.9-5-14.5-11.9
			c0-0.1,0-0.1-0.1-0.1c3.3-3.5,5.5-8.3,6.9-12.9c0.4,0.2,0.8,0.3,1.3,0.4c1.7,0.2,3.9-0.7,4.4-2.4c0.2-0.6-0.5-0.9-1-0.6
			c-1.1,0.9-1.9,1.9-3.5,1.6c-1.2-0.2-2.1-1.1-2.6-2.2c-0.2-0.5-1-0.1-0.9,0.4c0.2,0.8,0.6,1.5,1.1,2c0,0.1-0.1,0.1-0.1,0.2
			c-2.2,7.1-6.1,14.5-13.6,17c-3.9,1.3-8.2,0.9-12.2,0c-3.8-0.9-7.6-2.1-10.3-5.1c-0.4-0.4-0.9,0.2-0.6,0.6
			c2.6,3.1,6.3,4.7,10.2,5.7c2.4,0.6,4.9,1,7.4,1c0,0.1,0,0.1,0.1,0.2c0.1,0.3,0.1,0.5,0.1,0.8c0,0.2,0.2,0.4,0.3,0.4
			c0.6,6-1.1,12.3-5.3,16.9c-2.1,2.3-6.4,4.7-9.1,1.6c-1.9-2.3-0.9-5.8,0-8.3c0.3-0.8-1-1.2-1.3-0.4c-0.6,1.7-2.9,2.1-4.4,1.3
			c-1.7-0.9-2.4-2.8-2.8-4.5c-0.9-4-0.2-8.1,1.3-11.8c0.1-0.4-0.2-0.7-0.5-0.8c-4.9-1.9-6.3-7.7-3.3-11.8c3,0.3,5.6-0.7,7.7-2.4
			c2.6-0.5,4.8-0.8,7.4,0.2c0.7,0.3,1-0.7,0.7-1.1c-2.4-3.1-1.8-6.6,0.4-9.5c0-0.1,0.1-0.1,0.1-0.2c3.5-1.3,4.9-5.5,5.4-9.3
			c0.3,0.1,0.7,0.1,1.1,0c-0.9,1.7-0.8,3.9,0.2,5.6c1.3,2.1,3.6,3.1,5.9,3.5c-1.4,2.1-2.2,4.7-1.2,7.1c0.7,1.7,3.5,4.5,5.6,3.3
			c0.3-0.2,0.4-0.5,0.3-0.8v-0.1c-0.1-0.3-0.4-0.5-0.7-0.4h-0.1c-0.1,0-0.2,0.1-0.2,0.1c-1.5,0.7-3.4-2.1-3.7-3.1
			c-0.6-2.2,0.4-4.5,1.9-6.1c0.4-0.4,0.1-1.1-0.5-1.1c-2-0.1-4.1-0.6-5.5-2.2c-1.6-1.7-1.8-4.3-0.4-6.2c2.2-1,4.7-3.3,5.8-4
			c2.5-1.6,4.9-2.3,8-2.1c2.5,0.1,5,0.4,7.4-0.4c0.2-0.1,0.4-0.1,0.6-0.2c1.4,1.5,2.9,2.7,3.9,4.6c1,2,1.5,4.1,1.5,6.3
			c0,0.4,0.3,0.7,0.7,0.7c3,0.2,5.2,3,4.4,5.9c-0.9,3.1-4.2,4.2-7,2.9c-0.5-0.2-0.9,0.4-0.4,0.7c3.3,2,7.6,0.4,8.7-3.3
			c0.6-2,0.1-3.9-1.1-5.4c0.1-0.1,0.1-0.2,0.1-0.3c-0.1-2.1,0.9-5.1,3.7-4.6c1.3,0.2,2.4,1.1,3.6,1.6c2.2,0.8,4.8,0.9,6.9-0.1
			c1.8-0.9,3.3-2.5,3.6-4.5c0.4-2.5-1.7-3.9-3.4-5.4c-0.6-0.6-1.6,0.4-1,1c1.3,1.2,3.1,2.4,2.9,4.4c-0.1,1.4-1.5,2.6-2.6,3.2
			c-2.9,1.5-5.8,0.2-8.5-1c-3.6-1.5-6.7,1.3-6.1,4.9c-0.9-0.7-1.9-1.2-3.1-1.5c-0.1-3.9-2-8.9-5.6-10.9c6.2-3.4,10.4-12.8,6.1-18.9
			c1.1,0,2.2-0.2,3.2-0.7c3.6-1.8,6.5-6.6,5.8-10.7c2.9,0.6,5.8-1.9,4.9-5.2c-0.2-0.8-1.4-0.5-1.3,0.4c0.5,2.6-1.9,4.5-4.3,3.2
			c-0.5-0.3-1.2,0.2-1,0.8c1.4,3.6-1.1,8.3-4.3,10.2c-3,1.8-7,0.5-8.8-2.4c-0.3-0.5-1.1-0.1-0.8,0.5c1,1.9,2.8,3.3,4.9,3.8v0.1
			c0.3,2.4-1.1,4.5-3.5,5.2c-0.9,0.2-0.5,1.5,0.4,1.3c2.2-0.6,3.8-2.2,4.3-4.3c1.4,3.2,0.5,7.3-1.2,10.3c-1.9,3.5-5.3,6.3-9.4,6.5
			c-3.8,0.2-7.3-0.8-10.8,0.9c-1.1,0.5-9,6.5-9.8,5.5c-0.4-0.5-1.2-0.4-1.3,0.3c-0.2,4.1-1.8,9.7-6.9,9.4c-0.3,0-0.6,0.2-0.7,0.5
			c-1.6,6.2-5.9,13.2-13.2,12.1c-3.6-0.6-5.9-3.1-6.2-6.7c-0.3-3.2,0-7.6,2-10.2c0,0,0-0.1,0.1-0.1c5.9,1.3,12.1-2.1,15.6-6.6
			c0.5-0.7-0.4-1.6-0.9-0.9c-3.5,4.4-10.3,8.4-16,5.8c-3.2-1.5-4.3-5.1-4.1-8.4c0.2-3.6,1.9-6.6,5-8.4c5.8-3.5,12.4-4.1,18.6-6.2
			c2.5-0.9,5.1-2.4,6.6-4.6c1.7,6.2,11.7,8.5,15.9,3.7c0.9,3.9,5.1,6.2,9.1,4.4c0.8-0.3,0.1-1.5-0.7-1.2c-3.7,1.6-7.5-1.2-7.3-5.2
			c0-0.6-0.9-0.9-1.2-0.3c-2,4.1-7,4.2-10.7,2.5c-2.6-1.2-4.1-3.4-4.1-5.9c0.3-0.8,0.4-1.6,0.4-2.4c0-0.1,0-0.2,0.1-0.2
			c2.4-6.6,10.7-8.2,16.3-11.3c0.1,0.3,0.2,0.7,0.4,1c0.9,1.6,2.9,2.8,4.7,2.1c0.6-0.2,0.6-1.3-0.2-1.2c-4,0.5-4.4-3.8-3.1-6.6
			c0.2-0.5-0.4-0.9-0.8-0.4c-0.8,1.3-1.4,2.8-1.2,4.3c-2.2,0.7-4.4,1.8-6.5,2.7c-2.2,1-4.3,1.9-6.3,3.3c-1.5,1.1-2.8,2.5-3.7,4
			c-1.5-5.1-7.2-7.3-12.1-8.5c1.4-1.1,2.9-3.9,1.7-5.6c-0.2-0.3-0.8-0.3-0.9,0.1c-0.2,0.7,0,1.3-0.2,2c-0.2,0.9-0.6,1.7-1.3,2.4
			c-1.5,1.4-3.5,1.5-5.3,0.8c-0.4-0.2-0.7,0.5-0.3,0.8c1.6,0.9,3.5,1,5.2,0.3c3.2,1,6.7,1.9,9.2,4.2c1.8,1.6,2.9,3.7,3,5.9
			c-0.2,0.7-0.3,1.4-0.3,2.1c-0.2,0.5-0.4,1-0.8,1.5c-2,3-5.6,4.2-8.9,5c-3.3,0.8-6.6,1.6-9.8,2.7c-2.3,0.8-4.5,1.8-6.5,3.1
			c-0.1-0.2-0.2-0.3-0.4-0.3c-0.7-0.8-1-3.2-1-4.1c0-1.5,0.4-3.1,0.9-4.5c1-3.1,3.2-5.8,6.7-6c0.4,0,0.5-0.7,0.1-0.7
			c-0.9-0.1-1.8-0.1-2.6,0.2c0,0,0-0.1-0.1-0.1c-6-7.2-2.7-18.4,6.5-20.6c2.1-0.5,4.2-0.5,6.3,0c1.6,0.4,3.4,2.1,5.1,1.9
			c0.6-0.1,1.1-0.5,1.6-0.8c1-0.6,2-0.9,3.2-0.9c2.3,0,4.3,1.1,5.8,2.8c0.3,0.3,0.8-0.1,0.6-0.4c-0.9-1.7-2.6-2.9-4.5-3.3
			c-2.1-0.5-3.7,0-5.6,0.8c-2.2,0.9-5.1-1.3-7.5-1.6s-4.8,0-7,0.8h-0.1l0,0c-1.2-3.3-0.8-6.8,1.2-9.7c2.7-3.8,7.1-4.1,11.4-4.1
			c3.4,0,6.8-0.2,9.8-1.9c2.2-1.2,5-3.7,4.1-6.5c-0.1-0.2-0.4-0.2-0.4,0.1c0.1,2.3-2.2,4.3-4,5.3s-4,1.5-6.1,1.7s-4.2,0.1-6.3,0.2
			c-0.5-8.3,5.6-15.4,14.3-14.6c0.5,0,0.8-0.5,0.7-0.9c-1.3-5.3,4.8-8.8,8.8-5.2c-0.4,1.3-0.3,2.6,0.2,4.1c0.1,0.4,0.6,0.2,0.6-0.2
			c-0.2-1.4-0.1-2.7,0.3-3.8c0.2-0.2,0.3-0.4,0.2-0.6c1.7-3.8,6.6-6.2,10.5-7.4c2.8-0.9,5.9-1.3,8.8-0.6c2.8,0.7,5.2,2.2,7.7,3.6
			c0.1,0.1,0.2,0.1,0.3,0.1c0.5,0.7,1.2,1.3,2.1,1.5c0.5,0.1,0.6-0.6,0.2-0.7c-2.9-0.9-2.1-4.3,0-5.6c2-1.2,4.6-0.8,6.8-0.4
			c3.9,0.8,5.5,3.4,6.2,7.2c0.6,2.9,1,6.3-0.4,9c-1.7,3.2-5.5,3.7-8.7,3.4c-3.3-0.2-6.6-1.4-8.4-4.4c-1.3-2.1-2.1-4.4-4.5-5.5
			c-5-2.2-9.7,2.2-10.9,6.8c-0.2,0.6,0.7,0.8,0.9,0.2c1.2-3.3,3.6-6.5,7.5-6.4c4.1,0.1,4.7,3.9,6.7,6.5c0.9,1.2,2.2,2.1,3.7,2.8
			c-1.5,0.2-3,0.8-4.1,2c-2.4-1.2-5.2-1.8-7.8-0.8c-2.4,1-4,3-4.1,5.6c0,0.4,0.6,0.5,0.7,0.1c0.8-5.5,7.1-5.8,11-3.5
			c0.3,0.2,0.7,0,0.9-0.2c2.1-2.8,6.2-2.1,9.1-1.4c3.3,0.9,6.2,2.6,7.9,5.6c3.4,6,0.5,13.2-5.7,15.7c-0.8,0.3-0.5,1.6,0.4,1.3
			c2.1-0.8,3.9-2.1,5.2-3.7c0,0,0,0,0,0.1c1.7,2,3,4.5,2.7,7.1c-0.3,2.5-2,4.7-4.6,5.2c-0.6,0.1-0.6,1-0.2,1.3
			c6.3,4.3,7.2,12.5,2.9,18.5c-1.1-1.2-2.4-2.3-3.8-3.1c-0.7-0.4-8-3.7-8.2-3.2c0.2-0.5-0.5-0.9-0.9-0.5c-1,1.2,0.6,1.8,1.6,2.1
			c2.7,0.8,5.5,1.8,7.8,3.5c4.5,3.2,7,9.8,2.2,13.7c-2.8-3.4-7.7-5.2-12-6c-0.1-0.3-0.4-0.5-0.7-0.4c-0.4,0.1-0.7,0.1-1.1,0.2
			c-0.6,0.1-0.6,1.1,0,1.3c3.1,0.7,6.2,1.5,9.1,3c2.9,1.5,4.6,3.7,5.7,6.8c1.1,3.2,1.6,6.6,1.5,9.9c-0.1,1.8-0.3,3.5-0.7,5.3
			c-0.3,1.4-1,2.7-1.2,4c-0.2,1,0.1,1.8,0.5,2.7c0.7,1.8,1.1,3.6,1.2,5.5c0.2,3.2,0.2,6.3,0.2,9.5c0,3.3-0.2,6.7-0.8,10
			c-0.5,2.7-1.4,8.1-4.8,8.3c-1.6-0.4-3.4-0.4-5.2-0.2c-0.5,0.1-0.6,0.8,0,0.9c2.4,0,5.1,0,7.2,1.3c2.1,1.4,2.8,3.9,3.4,6.2
			C218.7,292.9,219,298.1,218.6,303.3z M151,251c-1.4-0.3-2.8-0.4-4.2-0.2c2-2.4,3.5-5.4,4.3-8.4c0.3,0,0.6,0,0.9-0.1
			C149.8,244.7,149.6,248.2,151,251z"/>
		<path class="st5" d="M207.8,243.7c-2.9-0.9-6.6,0.4-7.6,3.4c-0.8,2.5-0.3,6.1,1.1,8.5c-2.4,0.5-4.6,1.4-5.7,3.7
			c-2.4-0.3-5,3.2-4.8,5.4c0.1,0.5,0.7,0.5,0.8,0c0.1-1.2,0.7-2.1,1.6-2.9c1.1-1,3.1-1.8,3.6,0.3c0.2,0.9,0.2,1.9,0.2,2.8
			c0,0.6,0.1,1.8-0.2,2.5c0,0-0.1,0-0.1,0.1c0,0,0,0.1-0.1,0.1c-0.2,0.2-0.2,0.5,0,0.8l0.1,0.1c0.2,0.2,0.5,0.2,0.7,0.1
			c1.1-0.6,0.8-3.3,0.8-4.2c0-1.6-0.1-3.6-1.5-4.6c-0.1-0.1-0.2-0.1-0.3-0.2c1.4-2,3.9-2.5,6.2-2.9c0.5-0.1,0.6-0.8,0.3-1.1
			c-1.5-1.9-1.7-4.6-1.5-6.9c0.2-3.4,3.5-4.1,6.3-3.8C208.3,245,208.4,243.9,207.8,243.7z"/>
		<path class="st5" d="M212.4,247.9c-0.5-0.4-1.3,0.1-0.9,0.7c0.5,0.9,0.9,1.6,0.6,2.7c-0.4,1.4-1.6,2-3,1.8
			c-0.6-0.1-1.2,0.6-0.7,1.1c3.7,3.5,2.7,8.9-1.5,11.4c-0.5,0.3-0.1,0.9,0.4,0.7c4.7-2.1,5.8-8,3-11.9c1.1-0.2,2.1-0.8,2.8-1.9
			C214,251.1,213.7,249,212.4,247.9z"/>
		<path class="st5" d="M196.9,299.3c-4-0.7-1.9-6.9-3-9.6c-1-2.5-3.3-4-6-4.3c-0.9-0.1-0.9,1.3,0,1.4c1.9,0.2,3.6,1.3,4.5,3.1
			c1,1.9,0.4,4,0.6,6c0.1,1.3,0.5,2.7,1.4,3.6c-4,0.2-9.2,0.6-9.7,5.3c-0.4,3.8,2.6,5.7,5.8,6.7c-1.2,0.5-2.3,1.2-3.2,2.2
			c-0.7,0.8-2,3.3,0,3.4c0.4,0,0.4-0.4,0.2-0.6c-1.2-0.9,2-3.1,2.7-3.4c1.4-0.7,2.8-0.9,4.4-0.8c0.9,0.1,0.8-1.3,0-1.4
			c-3.2-0.4-9.7-1.7-8.4-6.5c1.1-4.2,7.3-3.3,10.5-3.7C197.4,300.6,197.7,299.5,196.9,299.3z"/>
	</g>
	<g>
		<path class="st16" d="M272.6,161.3c-1.6-0.8-4.1-0.9-5.8-0.7c-1,0.1-2.5,0.4-3.4,1.2c-0.8-4.5-3.6-8.6-7.1-11.5
			c-1.7-1.4-3.8-2.6-5.9-3.2c-1.1-0.3-4.2-1.1-4.5,0.7c-0.1,0.4,0.2,0.7,0.6,0.7h0.1c0.2,0,0.5-0.2,0.5-0.5c0-0.8,5.6,1.4,6.1,1.7
			c1.6,0.9,3.1,2.1,4.3,3.4c2.5,2.6,4.1,5.8,5.2,9.3c0,0.1,0.1,0.2,0.2,0.3c-0.3,1.4,0.8,3.1,1.5,4.1c1.1,1.4,2.7,2.5,4.4,2.7
			c0.4,0.1,0.7-0.5,0.3-0.7c-1.2-0.6-2.3-1.1-3.2-2.1c-0.8-0.9-2-2.5-1.5-3.7c0.5-1.3,2.9-1.3,4.1-1.2c1.3,0,2.6,0.5,3.9,0.4
			C272.8,162.2,273.1,161.6,272.6,161.3z"/>
		<path class="st16" d="M256.6,213c-0.1-1.1-1.1-1.7-2.1-1.2c-0.6,0.3-0.2,1.4,0.5,1.1c0.4-0.1-0.7,2.7-0.8,2.8
			c-0.6,0.9-1.4,1.7-2.3,2.4c-1.6,1.2-3.6,1.7-5.6,1.5c-0.5,0-0.8,0.6-0.6,1c1.9,3.2,0.1,7.1-3.6,7.6c-0.7,0.1-1,1.1-0.2,1.3
			c3.4,1.1,4.7,5.2,3.9,8.4c-1,3.7-4.2,6.4-7.2,8.4c-0.3,0.2-0.5,0.8-0.1,1.1c3.5,2.8,4.5,7.6,2.7,11.7c-0.1,0.1-0.1,0.3,0,0.4
			c-0.6,0.2-1.1,0.6-1.5,1.1c-0.6,0.8-1.1,2.2-0.4,3.1c0.2,0.2,0.5,0.1,0.6,0s0.2-0.2,0.1-0.3c-0.3-1.9,1.7-3.5,3.5-2.6
			c1,0.5,1.4,1.4,1.5,2.4c0,0.4,0.1,1.3,0.1,1.8c-0.1,0.1-0.2,0.3-0.1,0.5v0.1c0.1,0.4,0.5,0.5,0.9,0.4c1-0.5,0.6-2.8,0.3-3.6
			c-0.4-1.4-1.4-2.6-2.8-2.9c-0.4-0.1-0.8-0.1-1.1-0.1c2.2-4,1.1-9.1-2.1-12.2c3.4-2.4,6.9-5.6,7.4-10c0.4-3.1-0.8-6.3-3.4-8
			c3.1-1.3,4.7-4.8,3.4-8.1c2.9-0.1,5.7-1.6,7.5-4C255.7,216.1,256.7,214.4,256.6,213z"/>
		<path class="st16" d="M277.1,215c2.7,2,6,3.2,9.4,3.4c1.1,0.1,6.7,0.4,5.4-2.1c-0.4-0.8-1.5-0.1-1.1,0.7c-0.1-0.2-3.3,0.2-3.7,0.1
			c-1.3,0-2.6-0.3-3.9-0.6c-2.6-0.8-5.1-2.1-7.1-4.1c-3.9-3.9-5.5-9.6-4.5-14.9c0.1-0.6-0.7-1.3-1.1-0.7c-1.3,1.6-3.6,1.5-5.1,0.2
			c-1.2-1.1-1.9-2.6-2.3-4.2c-1.1-3.7-1.2-7.5-0.3-11.3c0.2-0.7-0.6-1.1-1.1-0.7c-3.2,2.6-7.5,4.5-11.6,3.5
			c-3.7-0.9-6.7-4.3-6.7-8.2c0-0.5-0.7-0.5-0.8,0c-0.5,4.3,2.7,8,6.6,9.3c4.2,1.3,8.5-0.1,11.9-2.5c-0.7,4.3-0.3,9.3,1.8,13
			c0.2,0.3,0.4,0.6,0.7,0.9c-2.8-0.3-5.7,1.2-7.9,2.9c-2.1,1.8-3.8,4-5.9,5.7c-2.5,2.1-5.7,3.2-8.7,4.6c-0.2,0.1-0.2,0.3-0.2,0.5
			c-1.6-0.7-3.8-0.1-3.8,2c0,0.5,0.7,0.6,0.8,0.1c0.5-1.8,2.6-1.6,3.3-0.1c0.3,0.6,0.3,1.3,0.1,1.9c-0.1,0.3-0.5,1.3-0.9,1.7
			c-0.1,0-0.1,0-0.2,0h-0.1c-0.3,0.1-0.5,0.3-0.5,0.6c0,0,0,0,0,0.1c0,0.3,0.2,0.6,0.5,0.6c1.1,0.2,2-1.5,2.3-2.4
			c0.5-1.3,0.4-2.7-0.4-3.8c-0.2-0.3-0.4-0.5-0.7-0.7l0,0c2.2-0.7,4.4-1.4,6.4-2.5c2-1,3.7-2.6,5.2-4.2c3-3.1,7.3-7.8,12.1-5.5
			c5.4,2.6,0.9,10.5-0.8,14.2c-1.9,4.3-4.3,8.5-7.7,11.8c-0.3,0.3-0.2,0.9,0.1,1.1c3.8,2,6.3,6.1,5.9,10.5c-0.3,4.5-3.6,8.2-7.9,9.5
			c-0.8,0.2-0.6,1.3,0.2,1.3c4.7,0.5,7.4,5.3,8,9.5c0.7,4.6-0.4,9.3-2.8,13.2c-2.4,3.8-6.2,5.9-9.5,8.8c-1.8,1.6-5.6,5.6-2.7,7.9
			c0.6,0.5,1.6-0.4,0.9-0.9c-3.2-2.8,7.2-9.2,8.9-10.7c0.9-0.8,1.8-1.8,2.6-2.8c0,0,0,0,0.1,0c2.6-2.6,5.8-4.3,9.4-5.3
			s7.4-0.9,11.1-1.7c2.8-0.7,5.5-2.1,6.9-4.8c1.5-3.1,1.7-7,1.2-10.4c-0.1-0.7-1.4-0.6-1.3,0.2c0.3,3.7,0.5,8.7-2.6,11.5
			c-2.7,2.5-6.7,2.5-10.1,2.9c-4.5,0.5-9.2,1.8-12.7,4.7c0.8-1.6,1.4-3.3,1.8-5c1.4-6.3-0.3-15.4-6.9-17.8c3.6-1.8,6.3-5.4,6.8-9.5
			c0.6-4.7-1.9-9.3-5.8-11.8c3.6-3.8,6-8.4,8.1-13.2c1.5-3.6,4.4-9.1,1.6-12.7c0.7,0,1.4-0.1,2.1-0.4
			C269.5,205.1,272,211.3,277.1,215z"/>
		<path class="st16" d="M290,222.2c-1.8,1.1-3.1,2.1-5.3,2.1c-1.6,0-6.7-0.9-7.1-2.8c-0.1-0.5-0.9-0.4-0.9,0.1
			c0,1.5,1.7,2.5,3.5,3.2c-0.3,0.1-0.6,0.3-0.8,0.4c-2.6,1.8-4.2,5.6-2.7,8.5c-3.3,1.9-5.6,5.3-5.9,9.1c-0.1,1.4,0.8,9.7,3.6,8
			c0.5-0.3,0.1-0.9-0.4-0.7c-0.8,0.4-1.8-4.4-1.9-5c-0.1-1.4,0-2.9,0.4-4.2c0.9-2.8,2.9-5.1,5.5-6.4c0.4-0.2,0.4-0.8,0.1-1.1
			c-1.7-2.1-0.2-5.3,1.6-6.8c1-0.8,2.1-1.2,3.4-1c1.5,0.2,2.1,1.1,2.9,2.3c0.3,0.4,1.1,0.3,1-0.3c-0.1-0.8-0.4-1.5-0.9-2
			c1.9-0.3,3.7-1,4.6-2.6C291,222.5,290.5,221.9,290,222.2z"/>
		<path class="st16" d="M279.1,281.2c-3-1.7-2.6-4.3-0.8-6.8c0.5-0.6-0.6-1.4-1.1-0.8c-5.2,6.3-11.4,11.5-17.3,17.1
			c-2.3-1.5-6.2,0-7.3,2.5c-0.2,0.5,0.4,0.9,0.7,0.4c0.9-1.4,2.4-2.2,4.1-2.2c2.4,0,3,2,3.1,4.1c0.1,2.6-0.7,5-2.1,7.1
			c-0.3-0.2-0.8,0-0.8,0.4c0,0.5,0.1,0.7,0.4,1.1c0.2,0.2,0.7,0.3,0.9,0c2.4-3,4.1-8.4,2.1-12c-0.1-0.2-0.3-0.5-0.5-0.6
			c5.3-4.2,10.3-8.8,14.9-13.8c-0.2,2.1,0.5,4.1,3,4.8C279.3,282.6,279.7,281.6,279.1,281.2z"/>
		<path class="st16" d="M297.9,264.3c-0.8-1.7-2.7-2.3-4-3.4c-0.5-0.5-1.1,0.1-0.9,0.7c0.5,1.1,1.6,1.5,2.6,2.2
			c1.9,1.4,1.8,4,0.6,5.8c-1.9,2.8-5.9,2.7-7.6,5.5c-1.4,2.5-0.3,5.5-0.6,8.1c-0.5,4.6-4.8,7.1-9.1,6c-0.6-0.1-0.8,0.7-0.2,0.9
			c3.3,1.2,7.1,0,9.2-2.9c1-1.4,1.5-3.1,1.5-4.8c0-2.1-0.7-4.5,0.3-6.5s3.7-2.3,5.3-3.5c1.3-0.9,2.5-2.1,3.1-3.7
			C298.6,267.3,298.6,265.7,297.9,264.3z"/>
		<path class="st16" d="M316.2,226c-0.8-4-2.2-9-6.3-10.5c2.6-3.1,1.9-7.9,0.5-11.4c-0.8-2-2-3.7-3.6-4.9c2.3-4.7,3.6-10.2,1.7-15.3
			c-0.8-2.1-2.1-4.1-3.8-5.6c-0.8-0.7-1.7-1.3-2.7-1.7c-1.2-0.6-2.8-1-3.5-2.2c-0.8-1.2-0.5-2.9-0.5-4.3c0-1.2-0.1-2.4-0.4-3.5
			c-0.5-2.4-1.7-4.6-3.1-6.5c-2.9-4.1-7.2-7.3-11.8-9.3c-3.2-1.4-6.7-2.2-10.1-1.9l-0.1-0.1c-0.2-0.2-0.4-0.3-0.6-0.5
			c0-0.1,0-0.3-0.1-0.4c-2-3.6-5.7-6.5-9.3-8.2c-2.5-1.2-5.9-2.3-8.9-2.3c0.1-0.1,0.1-0.3,0-0.4c-1.5-3-5.7-4.7-8.8-5.1
			c-3.3-0.4-6.6,0.5-9.4,2.3c-1.3-4-5.8-4.8-9.2-2.2c-3.6,2.9-3.9,8.3-1.2,11.8c-0.3,0.2-0.6,0.3-0.9,0.6c-3,2.2-3.1,6.3-1.2,9.2
			c-0.5,0-1.1,0.1-1.6,0.4c-1.7,0.8-2.1,2.9-1.4,4.6c0.8,1.9,2.6,2.7,4.5,3.1c-3.1,3.6-2.5,9.4-0.8,13.6c0.9,2.3,2.2,4.3,3.7,6.2
			c-3.7,0.3-5.4,5.3-5.7,8.5c-0.4,4.1,1.4,8.4,5.3,9.9c-2.3,1.8-3.3,4.8-3.4,7.7c-0.1,2.2-0.3,6.6,2.7,7c-4.2,6.6-3,15.6,1.9,21.7
			c-6.8,4.8-7.1,15.3-0.3,20.1c-4.1,0.8-5.1,7.6-3.4,11c-0.5,0.2-0.9,0.5-1.3,0.8c-4.6,3.6-3.8,10.6-2.2,15.5c1,2.8,2.4,5.3,4.3,7.5
			c-3.7,5.7-2.1,14.8,1.8,20c-0.2,0-0.4,0.1-0.5,0.3c-3,7.3-1.5,17.8,4.5,23.3c2.6,2.4,6.1,3.3,9.3,1.6c2.7-1.4,4.2-4.2,4.3-7.1
			c1.6,2.8,4.9,4.5,8.2,3.6c3.2-0.9,5.2-4.1,5.2-7.2c4.8,3.4,12.8-0.9,16.7-3.9c4.9-3.7,10.2-10.4,7.7-16.4c0.6,0.1,1.3,0.2,1.7,0.1
			c2.4-0.2,4.6-1.8,5.9-3.8c3.7-5.7,0.9-15.1,8-18.6c3.2-1.6,5.4-3.4,7.2-6.5c1.5-2.6,2.5-5.7,2.4-8.8c-0.2-4.3-2.5-7.5-5.4-10.3
			c3.9,0.1,8.1-2.3,9.3-6.2c0.8-3-0.3-6.3-2.8-8.1c3-1.3,4.5-4.7,4.1-8c-0.1-0.4-0.1-0.8-0.2-1.1c1.2-0.1,2.4-0.7,3.2-1.8
			C316.9,230.4,316.7,228.1,316.2,226z M311.9,232.7c-1.4-3.4-4.4-6.4-7.5-7.8c-0.2-2.8-1.5-5.6-3.8-7.7c3-3.6,2.4-8.9-1.1-12
			c-3.8-3.4-9.2-3.2-13.4-0.7c-0.5-5.4-7-8.3-7.1-13.8c0-0.1,0-0.3-0.1-0.4c0.7-0.2,1.4-0.6,1.9-1.2c0.8-1.1,1.7-3.1,1.2-4.5
			c-0.2-0.5-0.9-0.6-1,0c-0.3,1.4-0.6,3.9-2.3,4.4c-1.7,0.5-4.4-1.2-3.7-3.1c0.1-0.4-0.4-0.6-0.6-0.4c-2,2.1,1.3,4.5,3.2,4.8h0.1
			c0,0.1-0.1,0.2-0.1,0.3c0,6,7.6,9.1,7.1,15.1c0,0.5,0.6,0.9,1,0.6c3.5-2.6,8.3-3.4,12.1-0.8c3.7,2.6,4.6,7.9,1.3,11.2
			c-0.2,0.2-0.3,0.7,0,1c5.2,4.1,5,11.2,0.4,15.7c-0.3,0.3,0.1,0.9,0.5,0.6c2.7-1.9,4.1-4.7,4.3-7.6c2.5,2.2,5.3,3.8,6.5,7.3
			s-0.2,7.9-4.2,8.6c-0.7,0.1-0.6,1.1,0,1.3c3,1.1,4.3,4.8,3.2,7.7c-1.3,3.5-5,5-8.4,5.2c-0.1,0-0.2,0.1-0.3,0.1
			c-1.3-1.2-2.6-2.3-3.8-3.4c-3.1-2.8-5.6-6.1-7.7-9.7c-1.4-2.3-3.2-4.9-6.2-4.9c-0.1,0-0.2,0-0.3,0.1c-0.5-1-1.4-1.7-2.6-2.1
			c-0.5-0.2-1,0.6-0.6,1c1.1,1,2.1,1.7,2.5,3.2s0,3-0.8,4.2c-0.3,0.5,0.4,1.1,0.8,0.6c1.2-1.5,1.7-3.7,1.2-5.6
			c2.7,0.3,4.1,3.1,5.3,5.2c1.4,2.4,3.1,4.6,5,6.7c3.5,3.8,8.4,6.6,10.9,11.2c2.9,5.5,0.5,12.8-3.9,16.7c-2,1.8-4.7,2.2-6.5,4.3
			c-1.4,1.6-2.2,3.7-2.7,5.7c-0.7,3.1-0.8,6.4-2,9.4c-0.6,1.6-1.6,3.1-3.1,4c-0.7,0.4-1.4,0.8-2.2,1c-0.2,0.1-1.8,0.1-2.6-0.1
			c-0.2-0.2-0.3-0.5-0.5-0.7c0-0.2-0.2-0.4-0.4-0.5c0,0,0,0-0.1-0.1c-0.6-0.7-1.5,0.3-1,1c4.9,6.3-1.2,13.5-6.4,17.2
			c-3.6,2.6-12.2,7.4-15.9,2.5c-0.4-0.6-1.5-0.3-1.2,0.5c0.9,3.1-0.8,6.7-4,7.6c-3.2,1-6.6-1.2-7.7-4.2c-0.1-0.1-0.2-0.2-0.3-0.3
			c-0.2-0.7-1.4-0.5-1.3,0.2c0.5,3.7-1.2,7.5-5,8.4c-3.6,0.8-6.6-1.8-8.4-4.6c-3.7-5.8-4-12.9-2.4-19.4v-0.1c2.1,2.6,5,4.6,8.3,5.4
			c2.7,0.7,6.3,0.8,8.9-0.6c0.1,0.9,0.6,1.8,1.6,2.6c2.8,2.1,7,1,9.9-0.3c3.9-1.8,6.8-5.1,8.6-9c1.6-3.6,3.3-13.2,9-11.5
			c0.8,0.3,1.1-1,0.4-1.3c-3-1.2-5.7,1-7.1,3.4c-2,3.6-2.7,7.7-4.9,11.2c-2.1,3.4-5.7,6-9.6,6.9c-1.7,0.4-3.8,0.6-5.3-0.4
			c-3-1.9-0.1-5.2,1.3-7c0.4-0.5-0.2-1-0.7-0.7c-1.3,1-2.7,2.7-3.1,4.4c-3.1,1-5.7,1.6-9,0.7c-3.1-0.9-5.8-2.8-7.7-5.5
			c-3.6-5.1-4.4-12.5-2-18.2c1.7,1.8,3.8,3.3,6.1,4.3c2.6,1.2,5.5,1.8,8.5,1.8c1.7,0,5.4-0.1,5.2-2.5c0-0.6-1.1-0.9-1.2-0.2
			c-0.3,1.9-5.7,1.3-7,1.1c-2.4-0.4-4.6-1.2-6.7-2.4c-4-2.4-7-6.2-8.6-10.6c-1.5-4-2.4-9.6,0.5-13.2c1.8-2.2,4.5-2.8,7.1-1.6
			c2,1,3.2,2.7,4.6,4.2c-2,2.1,0.8,5.4,3,5.9c0.5,0.1,0.7-0.5,0.3-0.8c-1.1-0.8-3.6-2.7-2.4-4.2c0.3,0.2,0.7-0.1,0.6-0.5
			c0.7-0.4,1.5-0.5,2.3-0.4c0.9,0.1,1.4,0.6,2.2,1.1c0.5,0.3,1.1-0.3,0.8-0.8c-1-1.9-4-2-5.8-1c-2.1-3.5-6.3-6.4-10.2-5.3
			c-0.6-1.7-0.8-3.4-0.4-5.2c0.5-2,1.9-4.5,4.3-4.2c0.2,0,0.4-0.1,0.5-0.3c0.6-0.1,0.9-0.9,0.3-1.2c-7.4-4.2-8.1-14.6-0.6-19.2
			c0.4-0.2,0.4-0.7,0.1-1.1c-6.1-6.8-5.7-15.9-0.8-23.3c0.3-0.4-0.4-0.9-0.7-0.5c-0.5,0.5-0.9,1-1.2,1.5c0,0-0.1-0.1-0.2-0.1
			c-2.4-1.1-2-4.7-1.7-6.8c0.3-2.7,1.4-5.3,4-6.5c0.5-0.2,0.4-1.2-0.2-1.3c-3.9-0.7-6-4.3-5.9-8c0.1-3.1,1.4-8.3,5.2-8.6
			c2.2,2.6,4.8,4.9,7.4,7c0.3,0.2,0.6,0.2,0.8,0c-0.2,0.1-0.4,0.3-0.5,0.5c-0.7,0.9-1.2,2.7-0.8,3.8c0.3,0.7,1.1,0.9,1.4,0.1
			c0.1-0.2-0.2-0.5-0.5-0.3c0.4-0.3,0.3-1.4,0.4-1.8c0.3-1,1-1.7,2.1-1.3c1.3,0.4,1.9,1.7,2.8,2.6c0.4,0.4,1.1,0,1-0.6
			c-0.5-2.3-3.7-4.4-5.8-3.1c0.3-0.2,0.4-0.6,0.1-1c-3.9-3.5-7.9-6.9-10.5-11.5c-2.5-4.4-4.1-11.6,0.4-15.3c0.5-0.4,0-1.1-0.5-1.2
			c-1.9-0.2-4.4-0.7-4.9-2.9c-0.8-3.6,3.6-2.4,5.4-1.6c3.2,1.6,5.7,4.2,8.1,6.7c0.4,0.4,1.2,0.1,1.2-0.5c-0.1-3.9,3.6-6.9,7.4-6.8
			c4.1,0.1,6.6,2.9,9.2,5.7c0.3,0.3,0.8,0,0.7-0.4c-1.7-4.1-6.6-7.1-11-6.6c-3.6,0.4-6.8,3-7.5,6.5c-1.9-2-3.9-3.9-6.3-5.3
			c-1.2-0.7-2.7-1.5-4.2-1.7c-1.3-2.6-1.8-5.9,0.6-7.9c3.1-2.7,6.1,0.1,8,2.6c0.3,0.5,1.4,0.4,1.3-0.3c-0.5-4.2,4.2-8.1,7.9-9.1
			c1.9-0.5,3.8-0.4,5.5,0.4c1.8,0.9,2.5,2.3,3.4,4c0.3,0.5,1.1,0.3,1.1-0.3c-0.1-4.5-6.2-6.4-9.8-5.6c-3.9,0.8-8.7,4.5-9.4,8.7
			c-1.8-2-4-3.4-6.5-2.7c-1.6-3.1-2.4-6.8,0.3-9.7c1.1-1.2,2.6-2,4.2-2c2.3,0,3.4,1.7,3.8,3.7c0.1,0.6,0.8,0.6,1.1,0.3
			c2.7-2.1,6.1-3.1,9.5-2.5c1.6,0.3,3.1,0.8,4.5,1.7c1.2,0.7,2.1,1.7,3.1,2.6c-0.6,0.1-1.2,0.2-1.8,0.4c-0.3,0.1-0.4,0.7,0,0.8
			c1.9,0.3,3.7,0.2,5.6,0.5c2,0.4,3.9,1,5.8,1.9c3.7,1.8,6.3,4.5,8.8,7.7c0.1,0.2,0.3,0.2,0.5,0.2l0.1,0.1c-1.7,0.3-3.3,0.8-4.8,1.7
			c-0.5,0.3-0.1,1.1,0.5,0.8c6.3-2.9,13.5-0.9,19.1,2.7c5,3.2,9.6,8.2,10.4,14.3c0.3,2.4-0.6,5.2,1.2,7.2c1.6,1.9,4.4,2.2,6.2,3.9
			c5.5,4.9,4.6,13,1.6,19c-1.3-0.7-2.8-1.1-4.4-1c1.7-4.1,1.4-8.9-0.8-12.8c-1.3-2.2-3.2-3.8-5.5-5.1c-2.8-1.7-6.1-3.1-7.4-6.2
			c1-0.9,1.5-2.3,1.4-3.7c0-1-0.3-2.1-0.7-3c-0.2-0.5-0.3-1-0.8-1.1c-0.4-0.1-0.8,0.2-0.8,0.6v0.1c0,0.2,0.1,0.4,0.3,0.5
			c0.3,0.5,0.4,1.5,0.5,1.9c0.2,0.8,0.2,1.7,0,2.5c-0.2,0.7-0.8,1.5-1.5,1.7c-0.4,0.1-2.1-0.2-2.1-0.9c0.1-0.2,0.1-0.4,0-0.5
			l-0.1-0.1c-0.1-0.1-0.4-0.2-0.5-0.1c-0.8,0.6,0,1.8,0.6,2.2c0.9,0.7,2,0.8,3,0.3c1.6,4.8,7.4,5.9,10.7,9.2
			c3.8,3.9,4.6,10.1,2.1,14.9c-0.3,0.6,0.2,1.1,0.8,1c4.7-0.8,7.9,2.5,9.2,6.7c1,3.2,1.5,7.3-1.4,9.7c-0.4,0.3-0.2,1,0.3,1.1
			c3.5,0.7,5,4,5.9,7.2c0.4,1.6,1,3.3,1,4.9C315.2,230.4,314.2,233,311.9,232.7z"/>
	</g>
</g>
<rect x="1120.7" y="480.6" class="st9" width="1002.3" height="536.6"/>
<text transform="matrix(1 0 0 1 1120.6503 562.3501)" class="st5 st10 st17">You did it in</text>
</svg>
