<?xml version="1.0" encoding="utf-8"?>
<!-- Generator: Adobe Illustrator 16.0.5, SVG Export Plug-In . SVG Version: 6.00 Build 0)  -->
<!DOCTYPE svg PUBLIC "-//W3C//DTD SVG 1.1//EN" "http://www.w3.org/Graphics/SVG/1.1/DTD/svg11.dtd">
<svg version="1.1" id="Ebene_1" xmlns="http://www.w3.org/2000/svg" xmlns:xlink="http://www.w3.org/1999/xlink" x="0px" y="0px"
	 width="1646px" height="1145.008px" viewBox="0 0 1646 1145.008" enable-background="new 0 0 1646 1145.008" xml:space="preserve">
<rect fill="#2B2B2B" width="1646" height="1145.008"/>
<g>
	<defs>
		<rect id="SVGID_1_" x="73" y="39.008" width="1500" height="1080"/>
	</defs>
	<clipPath id="SVGID_2_">
		<use xlink:href="#SVGID_1_"  overflow="visible"/>
	</clipPath>
	<rect x="74" y="39.008" clip-path="url(#SVGID_2_)" fill="#2B2B2B" width="1499" height="1080"/>
	<polyline clip-path="url(#SVGID_2_)" fill="none" stroke="#F7931E" stroke-width="3" stroke-miterlimit="10" points="
		783.072,163.258 677.521,163.258 421.283,607.075 677.521,1050.893 1189.998,1050.893 1446.235,607.075 1189.998,163.258 
		866.788,163.258 	"/>
	<polyline clip-path="url(#SVGID_2_)" fill="none" stroke="#F7931E" stroke-width="3" stroke-miterlimit="10" points="
		890.861,1014.379 1169.068,1014.379 1404.378,606.812 1169.068,199.244 698.45,199.244 588.447,389.775 	"/>
	<polyline clip-path="url(#SVGID_2_)" fill="none" stroke="#F7931E" stroke-width="3" stroke-miterlimit="10" points="
		536.489,409.533 568.133,426.96 463.141,608.812 698.45,1016.379 851.001,1016.379 850.801,1042.725 	"/>
	<polyline clip-path="url(#SVGID_2_)" fill="none" stroke="#F7931E" stroke-width="3" stroke-miterlimit="10" points="
		1322.736,679.21 1364.535,606.812 1149.147,233.749 718.371,233.749 502.983,606.812 718.371,979.875 1149.147,979.875 
		1302.971,713.444 1332.18,731.863 	"/>
	<polyline clip-path="url(#SVGID_2_)" fill="none" stroke="#F7931E" stroke-width="3" stroke-miterlimit="10" points="
		1091.635,269.948 739.271,269.948 544.783,606.812 739.271,943.676 1128.248,943.676 1322.736,606.812 1128.248,269.948 	"/>
	<polyline clip-path="url(#SVGID_2_)" fill="none" stroke="#F7931E" stroke-width="3" stroke-miterlimit="10" points="
		810.492,309.244 764.909,309.244 593.321,606.442 764.909,903.641 1023.645,903.641 	"/>
	<polyline clip-path="url(#SVGID_2_)" fill="none" stroke="#F7931E" stroke-width="3" stroke-miterlimit="10" points="
		1068.726,903.641 1108.082,903.641 1279.67,606.442 1108.082,309.244 851.001,309.244 	"/>
	<polyline clip-path="url(#SVGID_2_)" fill="none" stroke="#29ABE2" stroke-width="3" stroke-miterlimit="10" points="
		1077.364,809.725 933.774,892.626 688.979,751.293 688.979,468.627 933.774,327.295 1178.569,468.627 1178.569,751.293 
		1118.534,785.955 1134.321,813.038 	"/>
	<polyline clip-path="url(#SVGID_2_)" fill="none" stroke="#29ABE2" stroke-width="3" stroke-miterlimit="10" points="
		982.63,393.543 1146.033,488.854 1147.121,734.04 936.415,855.69 724.622,732.155 723.533,486.969 934.239,365.316 
		944.144,371.096 968.038,357.252 	"/>
	<polyline clip-path="url(#SVGID_2_)" fill="none" stroke="#29ABE2" stroke-width="3" stroke-miterlimit="10" points="
		1113.656,572.915 1113.656,506.105 933.774,402.251 753.892,506.105 753.892,713.815 810.214,746.333 933.774,817.671 
		1113.656,713.815 1113.656,606.443 1146.555,606.443 	"/>
	<polyline clip-path="url(#SVGID_2_)" fill="none" stroke="#29ABE2" stroke-width="3" stroke-miterlimit="10" points="
		809.822,511.812 786.798,525.104 786.798,694.817 933.774,779.674 1080.75,694.817 1080.75,525.104 933.774,440.248 
		842.847,492.744 836.446,481.666 	"/>
	<polyline clip-path="url(#SVGID_2_)" fill="none" stroke="#7D02C4" stroke-width="3" stroke-miterlimit="10" points="
		824.482,565.406 798.425,609.961 866.1,727.177 1001.449,727.177 1069.124,609.961 1001.449,492.744 866.1,492.744 
		841.002,536.217 	"/>
	<polygon clip-path="url(#SVGID_2_)" fill="none" stroke="#7D02C4" stroke-width="3" stroke-miterlimit="10" points="
		1014.43,640.459 982.906,695.061 884.642,695.061 835.51,609.961 884.643,524.861 982.906,524.861 1032.038,609.961 
		1028.728,615.696 	"/>
	<g clip-path="url(#SVGID_2_)">
		<text transform="matrix(1 0 0 1 133.5938 225.207)" fill="#F2F2F2" font-family="'Krungthep'" font-size="22">Time:  2m 13 s</text>
	</g>
	<polygon clip-path="url(#SVGID_2_)" fill="#7D02C4" points="953.39,581.271 917.146,581.271 899.024,612.659 917.146,644.048 
		953.39,644.048 971.512,612.659 	"/>
	
		<line clip-path="url(#SVGID_2_)" fill="none" stroke="#F7931E" stroke-width="3" stroke-miterlimit="10" x1="631.881" y1="294.242" x2="641.451" y2="300.223"/>
	<g clip-path="url(#SVGID_2_)">
		<defs>
			<rect id="SVGID_3_" x="73" y="39.008" width="1500" height="1080"/>
		</defs>
		<clipPath id="SVGID_4_">
			<use xlink:href="#SVGID_3_"  overflow="visible"/>
		</clipPath>
		<path clip-path="url(#SVGID_4_)" fill="#191919" d="M1315.559,397.926c0,6.277-5.088,11.365-11.364,11.365
			c-6.278,0-11.364-5.088-11.364-11.365c0-6.275,5.086-11.363,11.364-11.363C1310.471,386.562,1315.559,391.65,1315.559,397.926"/>
		<circle clip-path="url(#SVGID_4_)" fill="none" stroke="#353535" stroke-miterlimit="10" cx="1304.194" cy="397.926" r="11.364"/>
		
			<line clip-path="url(#SVGID_4_)" fill="none" stroke="#F7931E" stroke-width="3" stroke-miterlimit="10" x1="969.234" y1="945.825" x2="969.234" y2="981.714"/>
		<path clip-path="url(#SVGID_4_)" fill="#191919" d="M772.444,254.372c0,6.276-5.088,11.364-11.365,11.364
			c-6.276,0-11.364-5.088-11.364-11.364s5.088-11.364,11.364-11.364C767.356,243.008,772.444,248.096,772.444,254.372"/>
		<circle clip-path="url(#SVGID_4_)" fill="none" stroke="#353535" stroke-miterlimit="10" cx="761.08" cy="254.372" r="11.365"/>
		
			<line clip-path="url(#SVGID_4_)" fill="none" stroke="#F7931E" stroke-width="3" stroke-miterlimit="10" x1="1129.536" y1="347.682" x2="1137.91" y2="342.896"/>
		
			<line clip-path="url(#SVGID_4_)" fill="none" stroke="#F7931E" stroke-width="3" stroke-miterlimit="10" x1="1164.229" y1="354.859" x2="1172.603" y2="350.074"/>
		
			<line clip-path="url(#SVGID_4_)" fill="none" stroke="#F7931E" stroke-width="3" stroke-miterlimit="10" x1="1195.332" y1="409.889" x2="1203.706" y2="405.104"/>
		
			<line clip-path="url(#SVGID_4_)" fill="none" stroke="#F7931E" stroke-width="3" stroke-miterlimit="10" x1="1155.854" y1="393.141" x2="1164.229" y2="388.355"/>
		
			<line clip-path="url(#SVGID_4_)" fill="none" stroke="#F7931E" stroke-width="3" stroke-miterlimit="10" x1="1023.066" y1="945.825" x2="1023.066" y2="925.488"/>
		
			<line clip-path="url(#SVGID_4_)" fill="none" stroke="#F7931E" stroke-width="3" stroke-miterlimit="10" x1="808.931" y1="309.401" x2="808.931" y2="295.047"/>
		<path clip-path="url(#SVGID_4_)" fill="#191919" d="M872.334,831.58c0,6.276-5.088,11.364-11.364,11.364
			s-11.364-5.088-11.364-11.364s5.088-11.365,11.364-11.365S872.334,825.304,872.334,831.58"/>
		<circle clip-path="url(#SVGID_4_)" fill="none" stroke="#353535" stroke-miterlimit="10" cx="860.97" cy="831.58" r="11.364"/>
		
			<line clip-path="url(#SVGID_4_)" fill="none" stroke="#29ABE2" stroke-width="3" stroke-miterlimit="10" x1="816.109" y1="740.064" x2="812.04" y2="747.388"/>
		
			<line clip-path="url(#SVGID_4_)" fill="none" stroke="#29ABE2" stroke-width="3" stroke-miterlimit="10" x1="862.765" y1="737.672" x2="858.695" y2="744.995"/>
		
			<line clip-path="url(#SVGID_4_)" fill="none" stroke="#29ABE2" stroke-width="3" stroke-miterlimit="10" x1="879.512" y1="778.346" x2="875.443" y2="785.669"/>
		<path clip-path="url(#SVGID_4_)" fill="#191919" d="M946.504,508.583c0,6.276-5.088,11.364-11.364,11.364
			c-6.277,0-11.364-5.088-11.364-11.364s5.087-11.365,11.364-11.365C941.416,497.218,946.504,502.307,946.504,508.583"/>
		<circle clip-path="url(#SVGID_4_)" fill="none" stroke="#353535" stroke-miterlimit="10" cx="935.14" cy="508.583" r="11.364"/>
		<path clip-path="url(#SVGID_4_)" fill="#EABF07" d="M953.771,855.883c-3.018,0.342-5.466,2.79-5.921,5.808
			c-0.229,1.651,0.113,3.131,0.911,4.44l-8.256,8.257c-0.455,0.454-0.455,1.138,0,1.593l2.562,2.562
			c0.229,0.228,0.569,0.228,0.797,0l1.594-1.594c0.229-0.229,0.229-0.569,0-0.798l-0.968-0.968l1.025-1.024l0.968,0.968
			c0.229,0.228,0.57,0.228,0.797,0l1.595-1.595c0.228-0.228,0.228-0.569,0-0.797l-0.968-0.968l3.245-3.245
			c1.252,0.74,2.789,1.139,4.441,0.911c3.017-0.398,5.466-2.904,5.807-5.922C961.97,859.071,958.213,855.313,953.771,855.883
			 M954.625,866.074c-1.879,0-3.416-1.537-3.416-3.416s1.537-3.416,3.416-3.416c1.88,0,3.416,1.537,3.416,3.416
			S956.505,866.074,954.625,866.074"/>
		<path clip-path="url(#SVGID_4_)" fill="#FFFFFF" d="M835.838,141.967c0,6.277-5.088,11.365-11.364,11.365
			s-11.364-5.088-11.364-11.365c0-6.275,5.088-11.363,11.364-11.363S835.838,135.691,835.838,141.967"/>
		<circle clip-path="url(#SVGID_4_)" fill="none" stroke="#A3A3A3" stroke-miterlimit="10" cx="824.474" cy="141.967" r="11.364"/>
		<line clip-path="url(#SVGID_4_)" fill="#212121" x1="1026.07" y1="620.299" x2="1003.173" y2="659.959"/>
		
			<line clip-path="url(#SVGID_4_)" fill="none" stroke="#E0B500" stroke-width="3" stroke-miterlimit="10" x1="1026.07" y1="620.299" x2="1003.173" y2="659.959"/>
	</g>
	<g clip-path="url(#SVGID_2_)">
		<text transform="matrix(1 0 0 1 130.6943 168.9707)" fill="#FFFFFF" font-family="'Krungthep'" font-size="46">maze it</text>
	</g>
	<g clip-path="url(#SVGID_2_)">
		<defs>
			<rect id="SVGID_5_" x="73" y="39.008" width="1500" height="1080"/>
		</defs>
		<clipPath id="SVGID_6_">
			<use xlink:href="#SVGID_5_"  overflow="visible"/>
		</clipPath>
		<g opacity="0.97" clip-path="url(#SVGID_6_)">
			<g>
				<defs>
					<rect id="SVGID_7_" y="6.008" width="1646" height="1139"/>
				</defs>
				<clipPath id="SVGID_8_">
					<use xlink:href="#SVGID_7_"  overflow="visible"/>
				</clipPath>
				<rect y="6.008" clip-path="url(#SVGID_8_)" fill="#2B2B2B" width="1646" height="1139"/>
			</g>
		</g>
	</g>
	<g clip-path="url(#SVGID_2_)">
		<text transform="matrix(1 0 0 1 506.6943 518.9707)" fill="#FFFFFF" font-family="'Krungthep'" font-size="90">You did it in</text>
	</g>
	<g clip-path="url(#SVGID_2_)">
		<defs>
			<rect id="SVGID_9_" x="73" y="39.008" width="1500" height="1080"/>
		</defs>
		<clipPath id="SVGID_10_">
			<use xlink:href="#SVGID_9_"  overflow="visible"/>
		</clipPath>
		<polygon clip-path="url(#SVGID_10_)" fill="#F2F2F2" points="841.584,679.008 769.416,679.008 733.332,741.508 769.416,804.008 
			841.584,804.008 877.668,741.508 		"/>
		<polygon clip-path="url(#SVGID_10_)" fill="none" stroke="#CCCCCC" stroke-width="6" stroke-miterlimit="10" points="
			841.584,679.008 769.416,679.008 733.332,741.508 769.416,804.008 841.584,804.008 877.668,741.508 		"/>
	</g>
	<g clip-path="url(#SVGID_2_)">
		<text transform="matrix(1 0 0 1 757.3003 754.3828)" font-family="'Krungthep'" font-size="37.6533">PLAY</text>
	</g>
	<g clip-path="url(#SVGID_2_)">
		<defs>
			<rect id="SVGID_11_" x="73" y="39.008" width="1500" height="1080"/>
		</defs>
		<clipPath id="SVGID_12_">
			<use xlink:href="#SVGID_11_"  overflow="visible"/>
		</clipPath>
		<g opacity="0.33" clip-path="url(#SVGID_12_)">
			<g>
				<defs>
					<rect id="SVGID_13_" x="130.5" y="96.508" width="179" height="256"/>
				</defs>
				<clipPath id="SVGID_14_">
					<use xlink:href="#SVGID_13_"  overflow="visible"/>
				</clipPath>
				<polyline clip-path="url(#SVGID_14_)" fill="#282828" points="174.261,97.008 309,97.008 309,352.008 131,352.008 131,97.008 
					149.104,97.008 				"/>
				<polyline clip-path="url(#SVGID_14_)" fill="none" stroke="#FFFFFF" stroke-miterlimit="10" points="174.261,97.008 309,97.008 
					309,352.008 131,352.008 131,97.008 149.104,97.008 				"/>
			</g>
		</g>
	</g>
	<g clip-path="url(#SVGID_2_)">
		<text transform="matrix(1 0 0 1 155.1465 324.2793)" fill="#FCFCFC" font-family="'Krungthep'" font-size="32">ma</text>
	</g>
	<g clip-path="url(#SVGID_2_)">
		<text transform="matrix(1 0 0 1 208.4585 324.2793)" fill="#FFFFFF" font-family="'Krungthep'" font-size="32">ze</text>
	</g>
	<g clip-path="url(#SVGID_2_)">
		<text transform="matrix(1 0 0 1 251.1206 324.2793)" fill="#FFFFFF" font-family="'Krungthep'" font-size="28"> it</text>
	</g>
	<g clip-path="url(#SVGID_2_)">
		<defs>
			<rect id="SVGID_15_" x="73" y="39.008" width="1500" height="1080"/>
		</defs>
		<clipPath id="SVGID_16_">
			<use xlink:href="#SVGID_15_"  overflow="visible"/>
		</clipPath>
		<path clip-path="url(#SVGID_16_)" fill="#FFFFFF" d="M206.368,154.543c-0.686,1.521-1.173,2.96-2.252,4.275
			c-0.469,0.572-0.994,1.095-1.56,1.57c-0.46,0.385-1.003,0.668-1.389,1.114c-0.746-0.03-1.416,0.517-1.922,1.074
			c-1.102,1.217-2.276,2.787-4.092,2.794c-1.663,0.007-2.969-1.35-4.128-2.371c-1.076-0.947-2.198-1.77-3.52-2.348
			c-0.071-0.031-0.144-0.059-0.216-0.09c-0.044-0.033-0.092-0.051-0.142-0.059c-2.238-0.892-4.86-1.154-7.194-0.492
			c-0.162-1.003-1.119-2.188-2.189-2.055c-0.317,0.039-0.508,0.464-0.176,0.648c0.668,0.377,1.333,0.549,1.566,1.395
			c0.232,0.848-0.293,1.691-1.139,1.879c-0.346,0.076-0.277,0.674,0.085,0.63c0.982-0.116,1.716-0.901,1.854-1.852
			c2.338-0.388,4.652-0.296,6.84,0.585c0.551,1.384,0.153,2.904-1.027,3.843c-0.255,0.203,0.078,0.632,0.349,0.452
			c1.276-0.846,1.909-2.398,1.627-3.857c0.01,0.006,0.02,0.01,0.029,0.014c2.109,1.106,3.517,3.244,5.7,4.193
			c1.988,0.865,3.838-0.003,5.279-1.437c0.43-0.427,0.783-1.004,1.245-1.39c0.372-0.311,1.471-0.431,1.885-0.106
			c0.28,0.219,0.441,1.026,0.528,1.346c0.457,1.662,0.32,3.341-0.178,4.97c-0.166,0.543,0.663,0.763,0.844,0.233
			c0.502-1.476,0.637-3.039,0.377-4.578c-0.169-1.001-0.494-2.44-1.399-3.097c1.154-0.528,2.244-1.825,2.913-2.678
			c0.98-1.248,1.917-2.812,2.127-4.411C207.142,154.361,206.522,154.202,206.368,154.543"/>
		<path clip-path="url(#SVGID_16_)" fill="#FFFFFF" d="M213.796,229.578c1.761-0.8,2.472-3.857,2.781-5.535
			c0.7-3.795,0.591-7.685,0.464-11.523c-0.055-1.698-0.139-3.4-0.787-4.993c-0.299-0.733-0.443-1.116-0.272-1.932
			c0.089-0.427,0.302-0.851,0.428-1.269c0.263-0.873,0.452-1.765,0.578-2.666c0.472-3.39,0.055-7.195-1.596-10.238
			c-0.108-0.197-0.226-0.387-0.351-0.573c2.44-1.603,2.68-4.956,1.31-7.36c-0.148-0.259-0.315-0.505-0.491-0.744
			c3.467-3.781,2.702-9.561-1.09-12.707c1.427-0.608,2.441-1.967,2.718-3.524c0.376-2.113-0.626-4.14-1.956-5.712
			c-0.044-0.051-0.09-0.086-0.139-0.11c1.679-2.519,1.911-5.916,0.139-8.708c-1.02-1.607-2.528-2.656-4.236-3.311
			c0.612-0.072,1.199-0.2,1.737-0.383c3.345-1.145,3.673-4.78,3.195-7.807c-0.253-1.605-0.651-3.413-1.835-4.609
			c-1.191-1.205-3.116-1.508-4.739-1.606c-1.66-0.099-3.663,0.382-4.373,2.081c-0.162,0.389-0.212,0.805-0.168,1.204
			c-1.623-1.029-3.431-1.935-5.329-2.23c-2.249-0.352-4.541,0.13-6.63,0.972c-2.064,0.832-4.778,2.354-5.89,4.479
			c-3.042-2.419-7.472,0.081-6.997,3.91c-5.518-0.114-10.321,4.795-9.284,10.412c-0.967,0.075-1.919,0.249-2.834,0.649
			c-3.393,1.485-5.141,5.918-3.612,9.299c0.005,0.01,0.011,0.018,0.016,0.026c-5.164,2.478-6.614,9.484-2.836,13.899
			c-1.33,0.729-2.259,2.195-2.753,3.709c-0.414,1.267-0.782,2.775-0.506,4.109c0.12,0.578,0.405,1.918,1.025,2.32
			c-1.406,1.105-2.436,2.571-2.731,4.664c-0.424,3.001,0.603,6.264,3.609,7.303c-0.767,0.948-1.033,2.057-1.211,3.26
			c-0.202,1.36-0.395,2.754-0.208,4.127c0.314,2.308,1.853,4.031,4.118,4.578c0.119,0.027,0.237,0.051,0.354,0.073
			c-2.096,2.919-1.056,6.798,2.159,8.375c-1.162,3.011-1.745,7.394,0.251,10.138c0.911,1.252,2.692,1.812,4.009,1.254
			c-0.326,1.455-0.339,3.006,0.558,4.227c0.371,0.505,0.841,0.857,1.361,1.089c-0.546,2.554,1.089,4.824,3.639,5.159
			c-0.824,3.24,0.811,7.298,3.542,9.16c2.219,1.514,5.05,0.939,6.569-1.018c0.344,2.691,1.85,5.248,4.345,6.475
			c2.489,1.223,5.573,0.873,7.692-0.862c0.197,1.978,1.08,3.866,2.616,5.179c1.293,1.105,3.143,1.594,4.535,0.566
			c0.444,1.65,2.056,2.823,3.578,3.48c2.103,0.908,4.619,1.012,6.535-0.39c4.149-3.034,3.15-9.637,0.65-13.392
			c-0.047-0.07-0.103-0.118-0.165-0.15c1.678-2.417,2.237-5.455,2.406-8.347c0.217-3.733,0.067-7.943-1.283-11.478
			C215.834,231.066,214.925,230.123,213.796,229.578 M216.785,244.438c-0.202,2.848-0.84,5.9-2.735,8.137
			c-2.022,2.385-5.112,3.318-8.002,4.178c-0.46,0.137-0.399,0.92,0.118,0.873c1.657-0.156,3.13,0.812,3.583,2.431
			c0.155,0.55,1.013,0.317,0.858-0.236c-0.364-1.298-1.29-2.305-2.465-2.786c2.481-0.818,4.9-1.895,6.608-3.932
			c2.072,3.188,3.141,8.562,0.197,11.557c-2.784,2.83-8.343,1.264-9.761-2.295c0.164-0.396-0.37-0.852-0.724-0.484
			c-1.425,1.478-3.424,0.236-4.486-1.036c-1.109-1.329-1.619-3.009-1.591-4.724c0.007-0.373-0.498-0.603-0.758-0.314
			c-1.911,2.113-5.14,2.598-7.637,1.238c-2.553-1.389-3.806-4.364-3.671-7.17c0.024-0.518-0.719-0.576-0.871-0.119
			c-1.009,3.058-4.624,3.506-6.792,1.396c-2.039-1.984-3.181-5.324-2.284-8.072c0.087-0.269-0.147-0.545-0.417-0.545
			c-2.281-0.002-3.947-1.924-3.662-4.145c1.211,0.322,2.601,0.057,3.694-0.596c0.759-0.453,1.433-1.019,2.03-1.664
			c-0.722,2.767-0.113,5.527,2.269,7.402c0.316,0.248,0.724-0.136,0.449-0.449c-1.058-1.205-1.977-2.217-2.1-3.89
			c-0.095-1.282,0.092-2.621,0.551-3.823c1.053-2.762,3.386-3.849,5.989-4.748c0.402-0.141,0.374-0.863-0.107-0.8
			c-1.698,0.224-3.323,1.02-4.596,2.183c0.937-2.532,1.209-5.363,0.87-7.795c-0.032-0.232-0.244-0.328-0.45-0.312
			c-0.001-0.017-0.004-0.032-0.006-0.05c1.054-0.051,2.098-0.221,3.107-0.555c1.696-0.56,3.131-1.485,4.349-2.647
			c0.777,4.465,6.667,4.708,9.223,7.717c1.454,1.712,2.313,3.722,4.267,4.976c1.785,1.146,4.067,1.83,6.154,2.125
			c0.083,0.013,0.158,0.002,0.224-0.021c-0.666,1.051-0.619,2.487-0.374,3.655c0.081,0.386,0.664,0.284,0.671-0.091
			c0.02-0.978-0.126-2.066,0.368-2.959c0.634-1.146,2.004-1.11,3.14-1.012c0.497,0.043,0.607-0.772,0.118-0.875l-0.339-0.07
			c-0.074-0.014-0.149-0.004-0.218,0.027c-1.12-0.051-2.298,0.094-3.076,0.943c0.011-0.162-0.075-0.326-0.295-0.393
			c-2.028-0.623-4.105-0.916-5.925-2.097c-1.81-1.174-2.622-3.077-3.958-4.685c-2.613-3.141-8.388-3.219-9.412-7.68
			c-0.008-0.035-0.023-0.065-0.041-0.092c2.153-2.293,3.566-5.346,4.5-8.339c0.263,0.13,0.546,0.22,0.844,0.257
			c1.074,0.135,2.501-0.445,2.829-1.553c0.111-0.374-0.353-0.59-0.618-0.359c-0.696,0.604-1.239,1.24-2.277,1.043
			c-0.808-0.155-1.347-0.742-1.684-1.455c-0.154-0.326-0.642-0.09-0.564,0.238c0.119,0.5,0.382,0.95,0.738,1.305
			c-0.029,0.041-0.055,0.084-0.071,0.141c-1.408,4.578-3.963,9.423-8.809,11.045c-2.546,0.854-5.309,0.578-7.877-0.02
			c-2.443-0.571-4.925-1.377-6.654-3.289c-0.235-0.258-0.59,0.117-0.378,0.377c1.658,2.039,4.093,3.058,6.583,3.697
			c1.545,0.396,3.167,0.662,4.779,0.662c0.013,0.045,0.028,0.088,0.041,0.131c0.051,0.172,0.061,0.346,0.052,0.525
			c-0.006,0.143,0.1,0.23,0.218,0.255c0.377,3.903-0.713,7.984-3.405,10.916c-1.39,1.515-4.176,3.04-5.896,1.039
			c-1.259-1.466-0.597-3.763,0-5.362c0.197-0.539-0.659-0.769-0.858-0.236c-0.403,1.107-1.871,1.357-2.839,0.861
			c-1.076-0.554-1.585-1.828-1.826-2.94c-0.557-2.562-0.115-5.259,0.828-7.67c0.089-0.228-0.101-0.447-0.297-0.523
			c-3.148-1.213-4.078-4.979-2.15-7.651c1.937,0.195,3.603-0.437,4.976-1.541c1.684-0.334,3.11-0.488,4.778,0.1
			c0.465,0.163,0.667-0.43,0.429-0.736c-1.556-2.009-1.139-4.259,0.26-6.173c0.028-0.039,0.04-0.075,0.044-0.112
			c2.236-0.865,3.201-3.584,3.473-6.004c0.21,0.043,0.439,0.036,0.68-0.008c-0.596,1.105-0.531,2.5,0.134,3.615
			c0.814,1.363,2.316,2.031,3.837,2.248c-0.929,1.344-1.441,3.016-0.773,4.598c0.461,1.092,2.264,2.924,3.598,2.118
			c0.183-0.11,0.237-0.303,0.204-0.502c-0.005-0.032-0.01-0.063-0.016-0.096c-0.034-0.21-0.284-0.304-0.466-0.265
			c-0.017,0.004-0.034,0.008-0.051,0.01c-0.058,0.014-0.11,0.048-0.152,0.093c-0.944,0.454-2.224-1.345-2.421-2.025
			c-0.417-1.44,0.288-2.901,1.202-3.981c0.242-0.284,0.087-0.727-0.306-0.74c-1.322-0.043-2.661-0.416-3.594-1.408
			c-1.023-1.089-1.156-2.812-0.228-3.992c1.447-0.682,3.035-2.111,3.741-2.57c1.636-1.061,3.196-1.478,5.151-1.369
			c1.614,0.089,3.212,0.267,4.774-0.26c0.129-0.043,0.258-0.092,0.386-0.145c0.895,1.002,1.898,1.734,2.557,2.965
			c0.679,1.266,0.989,2.647,0.977,4.079c-0.002,0.253,0.206,0.427,0.444,0.444c1.93,0.143,3.358,1.92,2.821,3.84
			c-0.559,1.996-2.743,2.691-4.526,1.9c-0.308-0.138-0.569,0.275-0.27,0.459c2.117,1.297,4.917,0.281,5.617-2.133
			c0.379-1.308,0.044-2.551-0.717-3.467c0.049-0.041,0.082-0.1,0.078-0.179c-0.063-1.388,0.568-3.286,2.369-2.964
			c0.818,0.146,1.578,0.734,2.362,1.011c1.439,0.507,3.078,0.599,4.476-0.079c1.158-0.561,2.122-1.624,2.314-2.925
			c0.24-1.629-1.079-2.524-2.179-3.489c-0.418-0.367-1.028,0.229-0.616,0.616c0.819,0.772,1.992,1.56,1.909,2.854
			c-0.058,0.896-0.984,1.709-1.717,2.101c-1.878,1.002-3.756,0.125-5.517-0.626c-2.35-1.003-4.321,0.838-3.965,3.193
			c-0.552-0.473-1.238-0.81-2.001-0.946c-0.094-2.524-1.294-5.761-3.605-7.043c4.026-2.22,6.766-8.263,3.981-12.22
			c0.712,0.021,1.432-0.112,2.103-0.437c2.358-1.138,4.215-4.263,3.753-6.922c1.906,0.369,3.737-1.252,3.166-3.386
			c-0.146-0.543-0.929-0.309-0.831,0.229c0.309,1.688-1.2,2.922-2.761,2.075c-0.311-0.168-0.799,0.118-0.652,0.501
			c0.885,2.318-0.701,5.369-2.772,6.578c-1.97,1.15-4.512,0.34-5.686-1.541c-0.205-0.328-0.696-0.039-0.518,0.303
			c0.648,1.247,1.835,2.125,3.157,2.458c-0.003,0.026-0.004,0.054-0.001,0.081c0.187,1.557-0.711,2.943-2.243,3.344
			c-0.553,0.145-0.319,1.004,0.237,0.857c1.41-0.368,2.466-1.456,2.806-2.797c0.92,2.088,0.308,4.72-0.772,6.648
			c-1.257,2.246-3.439,4.064-6.084,4.236c-2.434,0.159-4.706-0.509-7.021,0.574c-0.735,0.344-5.857,4.242-6.37,3.535
			c-0.258-0.354-0.802-0.236-0.829,0.225c-0.156,2.641-1.138,6.275-4.464,6.117c-0.19-0.008-0.382,0.144-0.428,0.324
			c-1.007,3.986-3.809,8.578-8.573,7.845c-2.316-0.356-3.838-2.024-4.036-4.358c-0.174-2.042,0.016-4.921,1.276-6.604
			c0.02-0.026,0.032-0.053,0.041-0.081c3.793,0.849,7.817-1.369,10.098-4.296c0.334-0.428-0.267-1.037-0.604-0.604
			c-2.239,2.879-6.678,5.438-10.362,3.754c-2.087-0.955-2.764-3.31-2.64-5.445c0.136-2.336,1.207-4.244,3.226-5.459
			c3.728-2.24,8.019-2.642,12.042-4.03c1.627-0.562,3.285-1.576,4.288-2.978c1.123,4.024,7.563,5.516,10.301,2.385
			c0.56,2.555,3.295,3.992,5.884,2.878c0.515-0.22,0.07-0.968-0.44-0.753c-2.412,1.023-4.837-0.787-4.709-3.354
			c0.02-0.4-0.597-0.583-0.776-0.21c-1.275,2.654-4.552,2.728-6.93,1.603c-1.667-0.787-2.626-2.203-2.646-3.851
			c0.173-0.493,0.266-1.022,0.26-1.582c0.017-0.051,0.03-0.102,0.049-0.151c1.551-4.266,6.932-5.295,10.54-7.297
			c0.063,0.22,0.149,0.436,0.268,0.646c0.572,1.017,1.889,1.788,3.045,1.336c0.383-0.149,0.384-0.847-0.107-0.792
			c-2.622,0.292-2.862-2.449-2.034-4.301c0.148-0.329-0.287-0.6-0.49-0.287c-0.535,0.822-0.879,1.822-0.795,2.795
			c-1.448,0.477-2.83,1.145-4.221,1.761c-1.404,0.621-2.816,1.263-4.067,2.163c-0.964,0.695-1.824,1.59-2.426,2.619
			c-0.981-3.318-4.64-4.749-7.814-5.495c0.894-0.731,1.867-2.532,1.132-3.635c-0.146-0.22-0.503-0.197-0.577,0.075
			c-0.116,0.428-0.023,0.852-0.109,1.287c-0.115,0.584-0.4,1.129-0.827,1.543c-0.948,0.918-2.296,0.973-3.459,0.498
			c-0.292-0.121-0.467,0.343-0.21,0.496c1.017,0.606,2.285,0.672,3.34,0.181c2.062,0.647,4.314,1.251,5.958,2.721
			c1.144,1.022,1.898,2.425,1.912,3.854c-0.122,0.431-0.197,0.875-0.216,1.332c-0.114,0.334-0.272,0.666-0.488,0.99
			c-1.297,1.93-3.617,2.694-5.769,3.217c-2.143,0.52-4.265,1.009-6.339,1.774c-1.481,0.547-2.941,1.16-4.183,1.987
			c-0.047-0.112-0.151-0.2-0.276-0.212c-0.471-0.526-0.677-2.078-0.67-2.632c0.01-0.959,0.281-1.986,0.578-2.895
			c0.658-2.009,2.083-3.742,4.322-3.9c0.245-0.019,0.342-0.424,0.063-0.463c-0.612-0.086-1.176-0.033-1.691,0.123
			c-0.014-0.029-0.032-0.056-0.054-0.082c-3.911-4.632-1.78-11.928,4.207-13.342c1.334-0.316,2.75-0.316,4.079,0.028
			c1.054,0.274,2.222,1.329,3.333,1.2c0.419-0.049,0.711-0.295,1.066-0.492c0.647-0.358,1.296-0.573,2.044-0.58
			c1.514-0.014,2.755,0.695,3.728,1.806c0.184,0.21,0.488-0.058,0.37-0.284c-0.578-1.117-1.686-1.873-2.895-2.17
			c-1.375-0.334-2.412,0.012-3.658,0.526c-1.404,0.581-3.329-0.812-4.857-1.017c-1.527-0.209-3.111-0.031-4.555,0.51
			c-0.018,0.006-0.034,0.015-0.051,0.021c-0.002-0.009-0.003-0.016-0.006-0.024c-0.775-2.136-0.533-4.411,0.802-6.285
			c1.767-2.479,4.598-2.672,7.407-2.683c2.174-0.01,4.392-0.154,6.347-1.205c1.413-0.758,3.247-2.406,2.656-4.191
			c-0.046-0.137-0.274-0.123-0.264,0.036c0.091,1.504-1.403,2.79-2.606,3.444c-1.194,0.65-2.577,0.966-3.922,1.086
			c-1.342,0.123-2.718,0.041-4.072,0.1c-0.322-5.361,3.637-9.955,9.241-9.469c0.297,0.027,0.489-0.301,0.426-0.559
			c-0.827-3.406,3.137-5.726,5.69-3.396c-0.235,0.82-0.226,1.715,0.135,2.684c0.086,0.232,0.412,0.141,0.37-0.102
			c-0.16-0.914-0.075-1.74,0.188-2.485c0.113-0.1,0.184-0.247,0.16-0.397c1.128-2.476,4.266-3.991,6.801-4.779
			c1.836-0.571,3.794-0.811,5.685-0.363c1.828,0.432,3.362,1.439,4.992,2.316c0.075,0.041,0.148,0.054,0.215,0.048
			c0.297,0.472,0.767,0.829,1.376,0.942c0.296,0.054,0.418-0.362,0.126-0.455c-1.865-0.592-1.366-2.815-0.002-3.627
			c1.301-0.776,2.974-0.533,4.38-0.243c2.553,0.528,3.542,2.22,4.016,4.635c0.366,1.864,0.629,4.087-0.276,5.84
			c-1.077,2.086-3.542,2.38-5.651,2.229c-2.169-0.154-4.265-0.899-5.454-2.821c-0.833-1.347-1.343-2.858-2.897-3.535
			c-3.257-1.418-6.262,1.404-7.046,4.394c-0.098,0.377,0.445,0.513,0.576,0.158c0.78-2.117,2.336-4.218,4.831-4.147
			c2.625,0.073,3.022,2.508,4.353,4.207c0.604,0.772,1.43,1.364,2.366,1.786c-1.002,0.146-1.933,0.537-2.646,1.326
			c-1.545-0.797-3.364-1.191-5.032-0.528c-1.572,0.625-2.572,1.961-2.632,3.642c-0.009,0.245,0.401,0.311,0.438,0.059
			c0.529-3.555,4.594-3.746,7.116-2.285c0.211,0.121,0.435,0.033,0.571-0.149c1.34-1.792,4.034-1.386,5.912-0.883
			c2.118,0.567,3.988,1.687,5.093,3.634c2.189,3.86,0.317,8.576-3.724,10.194c-0.513,0.205-0.303,1.04,0.232,0.844
			c1.374-0.505,2.518-1.345,3.386-2.386c0.01,0.015,0.018,0.029,0.03,0.043c1.081,1.277,1.924,2.904,1.755,4.628
			c-0.163,1.649-1.327,3.063-2.964,3.383c-0.403,0.079-0.398,0.616-0.106,0.812c4.105,2.769,4.645,8.1,1.854,11.969
			c-0.696-0.803-1.539-1.48-2.444-2.023c-0.442-0.266-5.159-2.427-5.285-2.066c0.11-0.316-0.351-0.588-0.572-0.332
			c-0.669,0.775,0.408,1.169,1.01,1.353c1.767,0.54,3.547,1.168,5.068,2.244c2.888,2.044,4.553,6.321,1.408,8.907
			c-1.836-2.217-4.981-3.401-7.791-3.917c-0.057-0.173-0.241-0.324-0.446-0.287c-0.236,0.037-0.471,0.084-0.704,0.14
			c-0.407,0.088-0.411,0.74,0,0.827c2.039,0.431,4.037,0.954,5.894,1.935c1.872,0.986,2.996,2.412,3.709,4.385
			c0.742,2.057,1.061,4.261,0.977,6.443c-0.045,1.147-0.203,2.287-0.477,3.402c-0.216,0.879-0.638,1.73-0.786,2.619
			c-0.107,0.643,0.087,1.158,0.318,1.743c0.468,1.185,0.697,2.308,0.778,3.583c0.131,2.044,0.158,4.111,0.144,6.158
			c-0.015,2.168-0.134,4.34-0.52,6.474c-0.314,1.729-0.885,5.265-3.106,5.36c-1.027-0.243-2.177-0.256-3.388-0.127
			c-0.345,0.037-0.363,0.549,0,0.551c1.55,0.008,3.294-0.023,4.64,0.865c1.332,0.879,1.823,2.521,2.179,3.989
			C216.835,237.695,217.021,241.107,216.785,244.438 M172.987,210.605c-0.888-0.197-1.821-0.258-2.716-0.121
			c1.326-1.535,2.277-3.52,2.815-5.458c0.197-0.004,0.387-0.021,0.571-0.045C172.228,206.492,172.106,208.773,172.987,210.605"/>
		<path clip-path="url(#SVGID_16_)" fill="#FFFFFF" d="M209.761,205.844c-1.856-0.575-4.305,0.247-4.927,2.232
			c-0.51,1.627-0.222,3.938,0.697,5.482c-1.541,0.346-3.01,0.904-3.689,2.407c-1.576-0.165-3.266,2.082-3.116,3.489
			c0.033,0.312,0.48,0.324,0.495,0c0.036-0.797,0.462-1.392,1.034-1.906c0.732-0.659,2.004-1.157,2.352,0.191
			c0.15,0.584,0.127,1.25,0.107,1.847c-0.014,0.418,0.042,1.168-0.112,1.627c-0.019,0.014-0.039,0.024-0.056,0.044
			c-0.016,0.02-0.032,0.036-0.048,0.055c-0.138,0.155-0.132,0.352,0,0.51c0.02,0.023,0.041,0.047,0.062,0.073
			c0.111,0.134,0.322,0.134,0.463,0.06c0.702-0.366,0.538-2.107,0.536-2.741c-0.003-1.028-0.042-2.349-0.999-2.986
			c-0.064-0.043-0.129-0.077-0.194-0.11c0.89-1.306,2.504-1.617,4.004-1.852c0.355-0.055,0.372-0.502,0.191-0.723
			c-0.983-1.2-1.087-2.969-0.985-4.463c0.152-2.217,2.24-2.644,4.079-2.449C210.119,206.681,210.176,205.972,209.761,205.844"/>
		<path clip-path="url(#SVGID_16_)" fill="#FFFFFF" d="M212.751,208.587c-0.319-0.256-0.842,0.063-0.603,0.465
			c0.348,0.584,0.606,1.04,0.418,1.728c-0.247,0.904-1.034,1.32-1.952,1.166c-0.401-0.067-0.767,0.404-0.425,0.729
			c2.367,2.261,1.747,5.763-0.991,7.38c-0.31,0.182-0.039,0.615,0.276,0.473c3.072-1.39,3.772-5.153,1.967-7.721
			c0.731-0.115,1.392-0.504,1.793-1.201C213.783,210.652,213.616,209.281,212.751,208.587"/>
		<path clip-path="url(#SVGID_16_)" fill="#FFFFFF" d="M202.717,241.878c-2.581-0.459-1.213-4.487-1.935-6.239
			c-0.661-1.606-2.165-2.599-3.856-2.787c-0.567-0.064-0.563,0.825,0,0.889c1.238,0.138,2.341,0.869,2.921,1.982
			c0.634,1.215,0.275,2.616,0.367,3.918c0.06,0.846,0.343,1.717,0.893,2.325c-2.592,0.144-5.929,0.371-6.253,3.408
			c-0.263,2.46,1.675,3.698,3.765,4.323c-0.782,0.305-1.495,0.787-2.065,1.438c-0.458,0.524-1.285,2.129-0.001,2.192
			c0.231,0.012,0.272-0.289,0.109-0.402c-0.789-0.554,1.322-2.005,1.746-2.223c0.884-0.456,1.845-0.591,2.828-0.494
			c0.564,0.056,0.551-0.81,0-0.875c-2.084-0.243-6.274-1.125-5.442-4.19c0.738-2.721,4.719-2.168,6.805-2.394
			C203.051,242.7,203.253,241.973,202.717,241.878"/>
		<path clip-path="url(#SVGID_16_)" fill="#F7931E" d="M251.775,152.492c-1.035-0.549-2.628-0.583-3.77-0.447
			c-0.628,0.075-1.628,0.283-2.183,0.801c-0.514-2.938-2.301-5.595-4.616-7.438c-1.132-0.9-2.436-1.673-3.829-2.089
			c-0.7-0.209-2.727-0.69-2.915,0.442c-0.039,0.236,0.099,0.476,0.364,0.476h0.081c0.159,0,0.299-0.136,0.297-0.297
			c-0.008-0.502,3.613,0.938,3.944,1.129c1.034,0.594,1.977,1.336,2.804,2.194c1.646,1.707,2.679,3.785,3.377,6.03
			c0.025,0.08,0.07,0.132,0.122,0.162c-0.22,0.882,0.489,2.038,0.987,2.677c0.7,0.896,1.732,1.623,2.875,1.777
			c0.252,0.034,0.477-0.322,0.193-0.459c-0.771-0.367-1.502-0.732-2.087-1.373c-0.529-0.578-1.319-1.613-0.99-2.396
			c0.341-0.81,1.88-0.825,2.647-0.803c0.843,0.024,1.697,0.327,2.53,0.237C251.908,153.083,252.096,152.663,251.775,152.492"/>
		<path clip-path="url(#SVGID_16_)" fill="#F7931E" d="M241.371,185.976c-0.079-0.731-0.685-1.103-1.333-0.749
			c-0.399,0.219-0.128,0.885,0.313,0.742c0.27-0.087-0.462,1.721-0.524,1.818c-0.382,0.597-0.893,1.127-1.471,1.537
			c-1.067,0.752-2.306,1.084-3.602,1c-0.342-0.023-0.546,0.392-0.384,0.668c1.216,2.068,0.066,4.617-2.357,4.914
			c-0.479,0.059-0.622,0.707-0.118,0.871c2.214,0.723,3.06,3.353,2.512,5.463c-0.625,2.406-2.72,4.127-4.691,5.45
			c-0.209,0.14-0.327,0.503-0.089,0.69c2.296,1.802,2.942,4.919,1.757,7.549c-0.039,0.087-0.039,0.171-0.014,0.243
			c-0.378,0.149-0.719,0.397-0.98,0.735c-0.4,0.514-0.727,1.418-0.257,1.979c0.102,0.121,0.296,0.095,0.401,0
			c0.067-0.062,0.099-0.116,0.084-0.208c-0.199-1.223,1.092-2.246,2.243-1.691c0.618,0.299,0.88,0.924,0.953,1.569
			c0.027,0.228,0.081,0.871,0.052,1.134c-0.082,0.088-0.125,0.208-0.083,0.33c0.006,0.02,0.014,0.041,0.021,0.062
			c0.084,0.246,0.328,0.336,0.559,0.227c0.671-0.318,0.363-1.791,0.223-2.359c-0.227-0.92-0.887-1.66-1.822-1.881
			c-0.244-0.058-0.489-0.072-0.727-0.054c1.413-2.59,0.736-5.914-1.382-7.905c2.228-1.555,4.439-3.65,4.763-6.469
			c0.229-1.994-0.545-4.078-2.177-5.176c2.031-0.86,3.048-3.116,2.22-5.251c1.9-0.089,3.681-1.029,4.841-2.566
			C240.819,187.964,241.467,186.873,241.371,185.976"/>
		<path clip-path="url(#SVGID_16_)" fill="#F7931E" d="M254.657,187.272c1.766,1.301,3.918,2.071,6.104,2.228
			c0.709,0.049,4.32,0.242,3.499-1.39c-0.252-0.502-0.966-0.062-0.744,0.435c-0.044-0.098-2.125,0.098-2.371,0.088
			c-0.858-0.031-1.711-0.172-2.536-0.406c-1.716-0.487-3.313-1.393-4.582-2.65c-2.52-2.496-3.565-6.195-2.906-9.656
			c0.074-0.385-0.439-0.813-0.742-0.431c-0.836,1.054-2.342,0.966-3.306,0.114c-0.786-0.693-1.202-1.715-1.49-2.696
			c-0.696-2.372-0.806-4.888-0.215-7.291c0.112-0.452-0.406-0.7-0.736-0.429c-2.056,1.693-4.83,2.919-7.531,2.262
			c-2.42-0.588-4.372-2.769-4.352-5.3c0.003-0.329-0.468-0.313-0.502,0c-0.294,2.759,1.727,5.213,4.296,6.026
			c2.691,0.853,5.489-0.086,7.739-1.633c-0.455,2.791-0.194,6.028,1.191,8.444c0.121,0.211,0.265,0.414,0.425,0.606
			c-1.795-0.168-3.707,0.752-5.091,1.904c-1.373,1.143-2.48,2.567-3.842,3.724c-1.637,1.389-3.707,2.065-5.621,2.971
			c-0.141,0.067-0.155,0.218-0.099,0.337c-1.039-0.472-2.451-0.062-2.466,1.311c-0.003,0.301,0.438,0.356,0.52,0.07
			c0.326-1.137,1.705-1.055,2.153-0.057c0.181,0.4,0.186,0.835,0.06,1.257c-0.067,0.224-0.33,0.866-0.596,1.086
			c-0.038-0.001-0.076,0.003-0.11,0.017l-0.044,0.018c-0.165,0.066-0.316,0.206-0.306,0.4c0.001,0.018,0.002,0.035,0.003,0.05
			c0.009,0.174,0.124,0.376,0.312,0.409c0.74,0.136,1.284-0.961,1.495-1.528c0.304-0.821,0.241-1.736-0.286-2.452
			c-0.128-0.173-0.286-0.314-0.46-0.429c0.01-0.003,0.018,0,0.029-0.003c1.408-0.45,2.845-0.91,4.161-1.592
			c1.299-0.674,2.374-1.666,3.391-2.701c1.965-2,4.727-5.051,7.853-3.559c3.5,1.674,0.566,6.822-0.51,9.221
			c-1.26,2.807-2.777,5.49-5.006,7.645c-0.2,0.193-0.16,0.562,0.09,0.698c2.448,1.313,4.058,3.981,3.842,6.793
			c-0.222,2.89-2.359,5.341-5.089,6.176c-0.505,0.155-0.365,0.819,0.118,0.874c3.029,0.336,4.774,3.413,5.212,6.163
			c0.469,2.95-0.244,6.055-1.823,8.573c-1.56,2.488-4.027,3.818-6.176,5.697c-1.168,1.022-3.596,3.603-1.777,5.09
			c0.418,0.344,1.021-0.233,0.604-0.603c-2.06-1.823,4.685-5.989,5.771-6.956c0.612-0.544,1.166-1.148,1.66-1.798
			c0.012-0.009,0.024-0.013,0.036-0.022c1.704-1.713,3.76-2.817,6.081-3.463c2.363-0.658,4.826-0.576,7.201-1.13
			c1.814-0.423,3.585-1.37,4.452-3.091c1.003-1.99,1.126-4.556,0.784-6.719c-0.075-0.473-0.886-0.367-0.843,0.113
			c0.217,2.42,0.299,5.653-1.673,7.432c-1.768,1.595-4.326,1.646-6.556,1.898c-2.922,0.334-5.947,1.172-8.247,3.03
			c0.532-1.026,0.935-2.12,1.192-3.247c0.924-4.057-0.175-9.99-4.453-11.527c2.341-1.193,4.064-3.469,4.38-6.137
			c0.36-3.033-1.213-6.018-3.752-7.625c2.354-2.432,3.908-5.443,5.23-8.539c0.995-2.33,2.86-5.877,1.064-8.215
			c0.457,0.024,0.911-0.06,1.332-0.277C249.746,180.857,251.383,184.861,254.657,187.272"/>
		<path clip-path="url(#SVGID_16_)" fill="#F7931E" d="M263.039,191.929c-1.136,0.735-1.99,1.378-3.426,1.368
			c-1.049-0.008-4.313-0.566-4.607-1.846c-0.079-0.346-0.592-0.256-0.603,0.082c-0.032,0.985,1.076,1.651,2.255,2.066
			c-0.19,0.082-0.369,0.178-0.531,0.289c-1.694,1.163-2.732,3.633-1.732,5.492c-2.114,1.249-3.613,3.414-3.847,5.896
			c-0.085,0.902,0.547,6.309,2.342,5.207c0.292-0.18,0.036-0.602-0.267-0.455c-0.506,0.246-1.193-2.832-1.23-3.213
			c-0.089-0.918-0.002-1.852,0.269-2.732c0.567-1.842,1.889-3.281,3.582-4.158c0.279-0.145,0.256-0.488,0.09-0.698
			c-1.079-1.368-0.123-3.446,1.051-4.422c0.616-0.513,1.377-0.78,2.172-0.671c0.977,0.136,1.391,0.719,1.893,1.471
			c0.182,0.271,0.712,0.203,0.676-0.184c-0.051-0.546-0.262-0.979-0.573-1.309c1.209-0.164,2.424-0.672,2.975-1.695
			C263.689,192.117,263.352,191.726,263.039,191.929"/>
		<path clip-path="url(#SVGID_16_)" fill="#F7931E" d="M255.979,230.17c-1.919-1.07-1.715-2.812-0.527-4.423
			c0.297-0.403-0.375-0.927-0.699-0.539c-3.385,4.062-7.397,7.423-11.177,11.086c-1.509-0.961-3.995-0.002-4.723,1.597
			c-0.146,0.319,0.289,0.592,0.479,0.28c0.573-0.938,1.541-1.444,2.639-1.451c1.573-0.012,1.96,1.312,2.011,2.651
			c0.065,1.675-0.448,3.208-1.339,4.583c-0.198-0.13-0.515,0.024-0.522,0.284c-0.01,0.357,0.034,0.445,0.278,0.699
			c0.149,0.154,0.471,0.182,0.615,0c1.549-1.965,2.657-5.428,1.342-7.805c-0.086-0.156-0.186-0.296-0.294-0.42
			c3.423-2.7,6.698-5.691,9.631-8.939c-0.159,1.362,0.332,2.683,1.973,3.14C256.104,231.035,256.386,230.398,255.979,230.17"/>
		<path clip-path="url(#SVGID_16_)" fill="#F7931E" d="M268.175,219.222c-0.544-1.073-1.724-1.46-2.574-2.233
			c-0.323-0.293-0.738,0.071-0.575,0.443c0.322,0.741,1.031,0.953,1.652,1.401c1.228,0.886,1.177,2.569,0.389,3.726
			c-1.215,1.784-3.821,1.738-4.892,3.572c-0.936,1.602-0.208,3.539-0.385,5.268c-0.303,2.957-3.101,4.576-5.877,3.91
			c-0.383-0.092-0.529,0.457-0.161,0.585c2.168,0.755,4.592-0.001,5.933-1.873c0.656-0.913,0.973-1.989,0.996-3.108
			c0.028-1.334-0.443-2.937,0.174-4.188c0.626-1.271,2.373-1.511,3.464-2.251c0.869-0.589,1.624-1.391,1.985-2.393
			C268.635,221.167,268.62,220.099,268.175,219.222"/>
		<path clip-path="url(#SVGID_16_)" fill="#F7931E" d="M280.029,194.354c-0.546-2.601-1.418-5.8-4.102-6.8
			c1.682-1.983,1.226-5.104,0.33-7.381c-0.514-1.309-1.312-2.402-2.324-3.158c1.523-3.059,2.346-6.633,1.125-9.942
			c-0.508-1.374-1.329-2.649-2.447-3.606c-0.528-0.451-1.108-0.815-1.736-1.113c-0.782-0.37-1.789-0.664-2.275-1.438
			c-0.503-0.804-0.308-1.869-0.308-2.764c0-0.771-0.087-1.544-0.26-2.297c-0.351-1.521-1.07-2.96-1.98-4.223
			c-1.906-2.648-4.643-4.736-7.628-6.03c-2.066-0.896-4.332-1.425-6.535-1.253c-0.022-0.026-0.047-0.051-0.077-0.071
			c-0.143-0.099-0.28-0.2-0.415-0.306c0.013-0.082,0.004-0.17-0.041-0.252c-1.268-2.338-3.682-4.2-6.046-5.325
			c-1.624-0.772-3.796-1.521-5.783-1.515c0.032-0.094,0.034-0.199-0.01-0.289c-0.945-1.935-3.707-3.074-5.717-3.334
			c-2.163-0.278-4.275,0.309-6.059,1.498c-0.846-2.569-3.776-3.139-5.962-1.396c-2.335,1.86-2.518,5.371-0.759,7.66
			c-0.199,0.102-0.399,0.225-0.601,0.373c-1.96,1.442-2.034,4.079-0.808,5.974c-0.353,0.014-0.697,0.086-1.019,0.245
			c-1.109,0.547-1.356,1.888-0.928,2.962c0.495,1.243,1.706,1.775,2.942,2.014c-2.033,2.363-1.643,6.11-0.514,8.832
			c0.605,1.459,1.446,2.782,2.424,4.008c-2.398,0.205-3.505,3.438-3.712,5.516c-0.263,2.636,0.923,5.449,3.408,6.416
			c-1.506,1.16-2.111,3.1-2.23,5.008c-0.091,1.447-0.201,4.275,1.731,4.562c-2.702,4.301-1.968,10.117,1.253,14.027
			c-4.425,3.12-4.618,9.896-0.212,13.008c-2.681,0.527-3.284,4.918-2.202,7.147c-0.293,0.14-0.581,0.315-0.862,0.536
			c-2.963,2.332-2.493,6.859-1.395,10.027c0.62,1.791,1.571,3.457,2.803,4.871c-2.385,3.715-1.338,9.582,1.148,12.982
			c-0.133-0.023-0.285,0.033-0.351,0.196c-1.913,4.735-0.97,11.52,2.903,15.077c1.663,1.529,3.966,2.107,6.037,1.025
			c1.759-0.921,2.72-2.714,2.8-4.607c1.011,1.818,3.191,2.901,5.286,2.315c2.07-0.581,3.351-2.626,3.36-4.687
			c3.078,2.173,8.307-0.602,10.832-2.497c3.201-2.404,6.614-6.708,4.985-10.654c0.411,0.088,0.821,0.115,1.091,0.093
			c1.554-0.134,2.97-1.178,3.801-2.457c2.391-3.68,0.615-9.761,5.152-12.033c2.041-1.023,3.486-2.183,4.652-4.189
			c0.997-1.716,1.626-3.716,1.549-5.714c-0.107-2.802-1.639-4.843-3.496-6.657c2.546,0.037,5.277-1.498,5.993-4.041
			c0.55-1.951-0.197-4.078-1.789-5.225c1.914-0.855,2.924-3.043,2.633-5.157c-0.033-0.246-0.089-0.49-0.153-0.733
			c0.808-0.035,1.528-0.445,2.049-1.139C280.468,197.26,280.315,195.721,280.029,194.354 M277.236,198.696
			c-0.89-2.178-2.849-4.14-4.877-5.086c-0.125-1.837-0.956-3.647-2.431-4.956c1.924-2.32,1.584-5.777-0.689-7.801
			c-2.481-2.208-5.99-2.066-8.696-0.434c-0.341-3.474-4.555-5.379-4.626-8.966c-0.002-0.096-0.03-0.174-0.073-0.237
			c0.483-0.11,0.914-0.377,1.234-0.808c0.547-0.733,1.099-2.021,0.79-2.907c-0.106-0.305-0.602-0.365-0.679,0
			c-0.196,0.926-0.396,2.545-1.493,2.877c-1.085,0.328-2.859-0.777-2.374-1.986c0.093-0.232-0.249-0.403-0.408-0.237
			c-1.288,1.343,0.812,2.94,2.082,3.101c0.027,0.004,0.053,0.004,0.08,0.004c-0.026,0.056-0.042,0.121-0.041,0.194
			c0.012,3.916,4.937,5.906,4.628,9.786c-0.026,0.319,0.404,0.578,0.669,0.385c2.286-1.675,5.376-2.217,7.812-0.51
			c2.401,1.684,2.95,5.119,0.843,7.271c-0.152,0.156-0.189,0.475,0,0.623c3.393,2.664,3.249,7.248,0.264,10.145
			c-0.21,0.204,0.07,0.594,0.321,0.417c1.728-1.226,2.63-3.035,2.779-4.914c1.647,1.402,3.421,2.468,4.192,4.699
			c0.794,2.297-0.102,5.108-2.72,5.575c-0.471,0.084-0.361,0.712,0,0.851c1.916,0.731,2.772,3.101,2.103,4.979
			c-0.81,2.279-3.227,3.236-5.454,3.345c-0.089,0.005-0.154,0.038-0.203,0.085c-0.812-0.752-1.661-1.475-2.466-2.203
			c-2.032-1.844-3.602-3.955-5.005-6.302c-0.905-1.513-2.05-3.162-3.991-3.165c-0.073,0-0.135,0.016-0.188,0.041
			c-0.344-0.628-0.896-1.129-1.675-1.368c-0.354-0.108-0.641,0.373-0.365,0.627c0.687,0.632,1.351,1.093,1.613,2.054
			c0.266,0.971,0.003,1.924-0.536,2.746c-0.2,0.305,0.273,0.682,0.512,0.395c0.795-0.955,1.086-2.415,0.765-3.653
			c1.734,0.222,2.634,1.987,3.44,3.354c0.918,1.553,1.982,3.011,3.211,4.334c2.269,2.442,5.445,4.262,7.04,7.272
			c1.874,3.542,0.342,8.267-2.547,10.826c-1.292,1.146-3.072,1.438-4.231,2.771c-0.908,1.047-1.422,2.391-1.744,3.721
			c-0.485,2.007-0.507,4.134-1.266,6.072c-0.411,1.047-1.053,1.978-2.002,2.604c-0.436,0.289-0.92,0.512-1.433,0.624
			c-0.151,0.033-1.159,0.084-1.714-0.055c-0.097-0.161-0.205-0.321-0.322-0.48c-0.004-0.152-0.118-0.279-0.248-0.318
			c-0.012-0.017-0.023-0.031-0.035-0.047c-0.366-0.438-0.957,0.185-0.619,0.619c3.157,4.062-0.77,8.745-4.116,11.158
			c-2.305,1.662-7.934,4.771-10.279,1.624c-0.282-0.378-0.955-0.179-0.809,0.341c0.559,1.986-0.522,4.314-2.566,4.928
			c-2.06,0.615-4.305-0.764-4.99-2.719c-0.032-0.094-0.098-0.145-0.172-0.167c-0.125-0.431-0.908-0.319-0.844,0.154
			c0.319,2.375-0.751,4.844-3.258,5.432c-2.316,0.544-4.258-1.134-5.423-2.95c-2.426-3.783-2.613-8.332-1.54-12.576
			c0.005-0.02,0.007-0.037,0.009-0.055c1.355,1.715,3.229,2.955,5.351,3.504c1.765,0.457,4.077,0.522,5.784-0.359
			c0.063,0.613,0.363,1.197,1.005,1.684c1.806,1.366,4.564,0.65,6.414-0.205c2.557-1.183,4.414-3.273,5.541-5.826
			c1.04-2.354,2.147-8.572,5.859-7.428c0.54,0.167,0.719-0.619,0.227-0.822c-1.912-0.795-3.669,0.635-4.573,2.229
			c-1.307,2.303-1.757,4.991-3.149,7.257c-1.371,2.229-3.665,3.878-6.221,4.456c-1.074,0.243-2.436,0.376-3.415-0.256
			c-1.94-1.252-0.083-3.353,0.862-4.545c0.246-0.31-0.121-0.675-0.431-0.431c-0.869,0.678-1.737,1.766-2.03,2.877
			c-1.978,0.664-3.695,1.062-5.814,0.47c-2.027-0.566-3.789-1.821-5.008-3.536c-2.346-3.297-2.881-8.075-1.272-11.803
			c1.126,1.16,2.455,2.121,3.958,2.795c1.713,0.772,3.592,1.188,5.475,1.143c1.073-0.025,3.506-0.049,3.398-1.625
			c-0.028-0.408-0.693-0.566-0.767-0.105c-0.201,1.252-3.67,0.852-4.562,0.719c-1.532-0.227-3.01-0.754-4.344-1.54
			c-2.604-1.535-4.517-4.04-5.548-6.86c-0.952-2.603-1.554-6.249,0.325-8.58c1.151-1.43,2.927-1.832,4.589-1.033
			c1.305,0.627,2.072,1.725,2.979,2.75c-1.27,1.346,0.525,3.526,1.968,3.812c0.313,0.062,0.469-0.32,0.213-0.503
			c-0.708-0.504-2.347-1.763-1.578-2.69c0.213,0.123,0.448-0.092,0.405-0.328c0.449-0.262,0.982-0.334,1.491-0.252
			c0.581,0.092,0.911,0.42,1.403,0.685c0.337,0.182,0.698-0.181,0.518-0.517c-0.669-1.252-2.57-1.317-3.785-0.674
			c-1.339-2.287-4.074-4.15-6.592-3.408c-0.357-1.086-0.502-2.203-0.23-3.34c0.311-1.299,1.247-2.934,2.797-2.729
			c0.157,0.021,0.274-0.055,0.347-0.166c0.373-0.035,0.602-0.564,0.195-0.797c-4.797-2.719-5.263-9.442-0.407-12.418
			c0.253-0.155,0.282-0.482,0.09-0.697c-3.969-4.41-3.705-10.316-0.54-15.064c0.182-0.273-0.229-0.586-0.452-0.35
			c-0.293,0.311-0.559,0.637-0.806,0.971c-0.029-0.033-0.065-0.059-0.109-0.078c-1.559-0.682-1.277-3.033-1.11-4.433
			c0.21-1.758,0.936-3.41,2.615-4.194c0.334-0.158,0.263-0.75-0.106-0.813c-2.523-0.429-3.858-2.788-3.799-5.21
			c0.049-1.979,0.93-5.403,3.371-5.544c1.433,1.675,3.109,3.166,4.772,4.565c0.18,0.151,0.393,0.131,0.546,0.029
			c-0.126,0.089-0.244,0.198-0.353,0.332c-0.464,0.573-0.758,1.734-0.51,2.456c0.163,0.474,0.708,0.585,0.901,0.084
			c0.061-0.157-0.156-0.328-0.294-0.228c0.232-0.17,0.164-0.877,0.255-1.166c0.196-0.623,0.64-1.096,1.334-0.862
			c0.867,0.291,1.218,1.11,1.808,1.71c0.274,0.277,0.691-0.012,0.621-0.361c-0.293-1.461-2.402-2.882-3.727-1.99
			c0.184-0.146,0.26-0.412,0.033-0.619c-2.497-2.27-5.117-4.463-6.787-7.455c-1.604-2.87-2.653-7.496,0.262-9.924
			c0.326-0.273,0.03-0.728-0.314-0.76c-1.226-0.115-2.861-0.473-3.165-1.894c-0.495-2.315,2.344-1.586,3.487-1.026
			c2.067,1.012,3.691,2.708,5.248,4.359c0.263,0.279,0.765,0.066,0.759-0.314c-0.044-2.519,2.321-4.467,4.764-4.404
			c2.652,0.067,4.299,1.91,5.975,3.694c0.166,0.179,0.531-0.006,0.431-0.251c-1.078-2.634-4.257-4.594-7.1-4.293
			c-2.328,0.246-4.41,1.973-4.867,4.24c-1.227-1.275-2.52-2.51-4.049-3.413c-0.757-0.446-1.745-0.96-2.722-1.118
			c-0.833-1.66-1.171-3.798,0.408-5.15c2.04-1.744,3.934,0.037,5.159,1.718c0.224,0.307,0.886,0.263,0.824-0.224
			c-0.35-2.738,2.722-5.244,5.123-5.914c1.201-0.334,2.463-0.272,3.586,0.287c1.191,0.594,1.609,1.484,2.219,2.588
			c0.175,0.316,0.69,0.176,0.682-0.186c-0.06-2.93-4.002-4.143-6.348-3.637c-2.528,0.545-5.654,2.896-6.119,5.654
			c-1.148-1.27-2.59-2.22-4.183-1.78c-1.029-2.021-1.523-4.431,0.184-6.273c0.699-0.754,1.693-1.284,2.738-1.291
			c1.465-0.009,2.217,1.087,2.453,2.401c0.066,0.365,0.507,0.376,0.741,0.195c1.745-1.348,3.96-1.979,6.149-1.627
			c1.029,0.166,2.005,0.53,2.894,1.076c0.765,0.467,1.33,1.125,2.013,1.67c-0.407,0.041-0.803,0.115-1.178,0.237
			c-0.219,0.071-0.268,0.45,0,0.494c1.202,0.199,2.424,0.123,3.63,0.351c1.296,0.242,2.558,0.653,3.742,1.234
			c2.399,1.178,4.052,2.921,5.675,4.986c0.085,0.107,0.191,0.145,0.295,0.135c0.027,0.027,0.055,0.059,0.083,0.087
			c-1.077,0.172-2.131,0.522-3.129,1.095c-0.345,0.198-0.043,0.684,0.306,0.524c4.084-1.869,8.755-0.601,12.377,1.723
			c3.221,2.066,6.24,5.31,6.707,9.265c0.183,1.541-0.362,3.371,0.748,4.664c1.039,1.209,2.836,1.437,4.026,2.498
			c3.591,3.201,2.986,8.405,1.061,12.326c-0.852-0.449-1.82-0.682-2.876-0.639c1.133-2.653,0.937-5.755-0.54-8.266
			c-0.857-1.457-2.091-2.492-3.537-3.334c-1.844-1.075-3.935-2.004-4.819-4.039c0.68-0.577,0.971-1.51,0.938-2.387
			c-0.025-0.674-0.211-1.339-0.427-1.972c-0.112-0.326-0.183-0.626-0.55-0.72c-0.26-0.066-0.512,0.125-0.517,0.394l-0.002,0.07
			c-0.003,0.161,0.087,0.271,0.209,0.323c0.193,0.305,0.276,0.955,0.334,1.235c0.111,0.541,0.155,1.095-0.014,1.63
			c-0.15,0.471-0.5,0.971-1,1.112c-0.258,0.073-1.359-0.133-1.369-0.595c0.089-0.107,0.089-0.241-0.004-0.348l-0.04-0.047
			c-0.073-0.084-0.23-0.104-0.322-0.041c-0.54,0.359,0.002,1.168,0.366,1.448c0.561,0.431,1.295,0.492,1.917,0.21
			c1.029,3.092,4.781,3.833,6.92,5.989c2.482,2.502,3.002,6.558,1.335,9.633c-0.197,0.361,0.125,0.72,0.501,0.652
			c3.027-0.533,5.131,1.616,5.985,4.313c0.655,2.066,0.943,4.758-0.902,6.297c-0.25,0.207-0.117,0.676,0.195,0.739
			c2.289,0.459,3.252,2.604,3.798,4.654c0.268,1.008,0.616,2.13,0.618,3.179C279.379,197.262,278.723,198.895,277.236,198.696"/>
	</g>
</g>
</svg>
