<?xml version="1.0" encoding="utf-8"?>
<!-- Generator: Adobe Illustrator 16.0.5, SVG Export Plug-In . SVG Version: 6.00 Build 0)  -->
<!DOCTYPE svg PUBLIC "-//W3C//DTD SVG 1.1//EN" "http://www.w3.org/Graphics/SVG/1.1/DTD/svg11.dtd">
<svg version="1.1" id="Ebene_1" xmlns="http://www.w3.org/2000/svg" xmlns:xlink="http://www.w3.org/1999/xlink" x="0px" y="0px"
	 width="2384px" height="1620.162px" viewBox="0 0 2384 1620.162" enable-background="new 0 0 2384 1620.162" xml:space="preserve">
<rect x="-363.844" fill="#2B2B2B" width="3327.332" height="1620.162"/>
<g>
	<defs>
		<rect id="SVGID_1_" x="522.5" y="256.26" width="1500" height="1080"/>
	</defs>
	<clipPath id="SVGID_2_">
		<use xlink:href="#SVGID_1_"  overflow="visible"/>
	</clipPath>
	<rect x="522.5" y="256.26" clip-path="url(#SVGID_2_)" fill="#2B2B2B" width="1500" height="1080"/>
	<g clip-path="url(#SVGID_2_)">
		<defs>
			<rect id="SVGID_3_" x="522.5" y="256.26" width="1500" height="1080"/>
		</defs>
		<clipPath id="SVGID_4_">
			<use xlink:href="#SVGID_3_"  overflow="visible"/>
		</clipPath>
		<g opacity="0.15" clip-path="url(#SVGID_4_)">
			<g>
				<defs>
					<rect id="SVGID_5_" x="565.287" y="167.7" width="1429.943" height="1285.6"/>
				</defs>
				<clipPath id="SVGID_6_">
					<use xlink:href="#SVGID_5_"  overflow="visible"/>
				</clipPath>
				<g opacity="0.21" clip-path="url(#SVGID_6_)">
					<g>
						<defs>
							<rect id="SVGID_7_" x="565.287" y="214.93" width="1429.943" height="1238.37"/>
						</defs>
						<clipPath id="SVGID_8_">
							<use xlink:href="#SVGID_7_"  overflow="visible"/>
						</clipPath>
						<polyline clip-path="url(#SVGID_8_)" fill="none" stroke="#FFFFFF" stroke-width="3" stroke-miterlimit="10" points="
							1070.54,216.432 923.639,216.432 567.019,834.116 923.639,1451.8 1636.88,1451.8 1993.5,834.116 1636.88,216.432 
							1187.052,216.432 						"/>
					</g>
				</g>
				<g opacity="0.21" clip-path="url(#SVGID_6_)">
					<g>
						<defs>
							<rect id="SVGID_9_" x="798.372" y="265.02" width="1138.608" height="1137.462"/>
						</defs>
						<clipPath id="SVGID_10_">
							<use xlink:href="#SVGID_9_"  overflow="visible"/>
						</clipPath>
						<polyline clip-path="url(#SVGID_10_)" fill="none" stroke="#FFFFFF" stroke-width="3" stroke-miterlimit="10" points="
							1220.556,1400.981 1607.752,1400.981 1935.244,833.748 1607.752,266.515 952.767,266.515 799.671,531.686 						"/>
					</g>
				</g>
				<g opacity="0.21" clip-path="url(#SVGID_6_)">
					<g>
						<defs>
							<rect id="SVGID_11_" x="637.461" y="549.522" width="543.049" height="882.57"/>
						</defs>
						<clipPath id="SVGID_12_">
							<use xlink:href="#SVGID_11_"  overflow="visible"/>
						</clipPath>
						<polyline clip-path="url(#SVGID_12_)" fill="none" stroke="#FFFFFF" stroke-width="3" stroke-miterlimit="10" points="
							741.275,550.835 785.316,575.089 639.192,828.182 966.685,1395.414 1178.999,1395.414 1178.72,1432.081 						"/>
					</g>
				</g>
				<g opacity="0.21" clip-path="url(#SVGID_6_)">
					<g>
						<defs>
							<rect id="SVGID_13_" x="678.994" y="313.04" width="1202.536" height="1041.42"/>
						</defs>
						<clipPath id="SVGID_14_">
							<use xlink:href="#SVGID_13_"  overflow="visible"/>
						</clipPath>
						<polyline clip-path="url(#SVGID_14_)" fill="none" stroke="#FFFFFF" stroke-width="3" stroke-miterlimit="10" points="
							1821.619,934.509 1879.794,833.748 1580.026,314.536 980.493,314.536 680.725,833.748 980.493,1352.96 1580.026,1352.96 
							1794.111,982.154 1834.762,1007.789 						"/>
					</g>
				</g>
				<g opacity="0.21" clip-path="url(#SVGID_6_)">
					<g>
						<defs>
							<rect id="SVGID_15_" x="737.168" y="363.417" width="1086.182" height="940.662"/>
						</defs>
						<clipPath id="SVGID_16_">
							<use xlink:href="#SVGID_15_"  overflow="visible"/>
						</clipPath>
						<polyline clip-path="url(#SVGID_16_)" fill="none" stroke="#FFFFFF" stroke-width="3" stroke-miterlimit="10" points="
							1499.983,364.917 1009.58,364.917 738.9,833.748 1009.58,1302.579 1550.939,1302.579 1821.619,833.748 1550.939,364.917 
													"/>
					</g>
				</g>
				<g opacity="0.21" clip-path="url(#SVGID_6_)">
					<g>
						<defs>
							<rect id="SVGID_17_" x="804.721" y="415.325" width="600.637" height="830.252"/>
						</defs>
						<clipPath id="SVGID_18_">
							<use xlink:href="#SVGID_17_"  overflow="visible"/>
						</clipPath>
						<polyline clip-path="url(#SVGID_18_)" fill="none" stroke="#FFFFFF" stroke-width="3" stroke-miterlimit="10" points="
							1108.701,416.824 1045.26,416.824 806.453,830.451 1045.26,1244.077 1405.357,1244.077 						"/>
					</g>
				</g>
				<g opacity="0.21" clip-path="url(#SVGID_6_)">
					<g>
						<defs>
							<rect id="SVGID_19_" x="1165.08" y="415.325" width="598.33" height="830.252"/>
						</defs>
						<clipPath id="SVGID_20_">
							<use xlink:href="#SVGID_19_"  overflow="visible"/>
						</clipPath>
						<polyline clip-path="url(#SVGID_20_)" fill="none" stroke="#FFFFFF" stroke-width="3" stroke-miterlimit="10" points="
							1468.098,1244.077 1522.874,1244.077 1761.681,830.451 1522.874,416.824 1165.08,416.824 						"/>
					</g>
				</g>
				<g opacity="0.21" clip-path="url(#SVGID_6_)">
					<g>
						<defs>
							<rect id="SVGID_21_" x="938.085" y="440.215" width="684.385" height="790.265"/>
						</defs>
						<clipPath id="SVGID_22_">
							<use xlink:href="#SVGID_21_"  overflow="visible"/>
						</clipPath>
						<polyline clip-path="url(#SVGID_22_)" fill="none" stroke="#FFFFFF" stroke-width="3" stroke-miterlimit="10" points="
							1480.121,1113.369 1280.279,1228.748 939.584,1032.048 939.584,638.647 1280.279,441.947 1620.975,638.647 1620.975,1032.048 
							1537.42,1080.288 1559.392,1117.98 						"/>
					</g>
				</g>
				<g opacity="0.21" clip-path="url(#SVGID_6_)">
					<g>
						<defs>
							<rect id="SVGID_23_" x="986.173" y="482.342" width="592.537" height="696.736"/>
						</defs>
						<clipPath id="SVGID_24_">
							<use xlink:href="#SVGID_23_"  overflow="visible"/>
						</clipPath>
						<polyline clip-path="url(#SVGID_24_)" fill="none" stroke="#FFFFFF" stroke-width="3" stroke-miterlimit="10" points="
							1348.275,534.147 1575.691,666.796 1577.206,1008.035 1283.956,1177.344 989.191,1005.412 987.676,664.173 1280.927,494.864 
							1294.712,502.905 1327.966,483.64 						"/>
					</g>
				</g>
				<g opacity="0.21" clip-path="url(#SVGID_6_)">
					<g>
						<defs>
							<path id="SVGID_25_" d="M1545.94,778.222L1545.94,778.222z"/>
						</defs>
						<clipPath id="SVGID_26_">
							<use xlink:href="#SVGID_25_"  overflow="visible"/>
						</clipPath>
					</g>
				</g>
				<g opacity="0.21" clip-path="url(#SVGID_6_)">
					<g>
						<defs>
							<rect id="SVGID_27_" x="1029.82" y="544.534" width="547.991" height="581.627"/>
						</defs>
						<clipPath id="SVGID_28_">
							<use xlink:href="#SVGID_27_"  overflow="visible"/>
						</clipPath>
						<polyline clip-path="url(#SVGID_28_)" fill="none" stroke="#FFFFFF" stroke-width="3" stroke-miterlimit="10" points="
							1532.023,783.789 1532.023,690.808 1281.671,546.267 1031.32,690.808 1031.32,979.888 1109.707,1025.145 1281.671,1124.429 
							1532.023,979.888 1532.023,830.452 1577.81,830.452 						"/>
					</g>
				</g>
				<g opacity="0.21" clip-path="url(#SVGID_6_)">
					<g>
						<defs>
							<path id="SVGID_29_" d="M1123.078,693.181L1123.078,693.181z"/>
						</defs>
						<clipPath id="SVGID_30_">
							<use xlink:href="#SVGID_29_"  overflow="visible"/>
						</clipPath>
					</g>
				</g>
				<g opacity="0.21" clip-path="url(#SVGID_6_)">
					<g>
						<defs>
							<rect id="SVGID_31_" x="1089.535" y="591.85" width="412.107" height="475.861"/>
						</defs>
						<clipPath id="SVGID_32_">
							<use xlink:href="#SVGID_31_"  overflow="visible"/>
						</clipPath>
						<polyline clip-path="url(#SVGID_32_)" fill="none" stroke="#FFFFFF" stroke-width="3" stroke-miterlimit="10" points="
							1123.079,693.181 1091.036,711.682 1091.036,947.88 1295.59,1065.979 1500.144,947.88 1500.144,711.682 1295.59,593.581 
							1169.041,666.645 1160.133,651.227 						"/>
					</g>
				</g>
				<g opacity="0.21" clip-path="url(#SVGID_6_)">
					<g>
						<defs>
							<path id="SVGID_33_" d="M1147.423,760.14L1147.423,760.14z"/>
						</defs>
						<clipPath id="SVGID_34_">
							<use xlink:href="#SVGID_33_"  overflow="visible"/>
						</clipPath>
					</g>
				</g>
				<g opacity="0.21" clip-path="url(#SVGID_6_)">
					<g>
						<defs>
							<rect id="SVGID_35_" x="1105.481" y="665.145" width="380.213" height="329.272"/>
						</defs>
						<clipPath id="SVGID_36_">
							<use xlink:href="#SVGID_35_"  overflow="visible"/>
						</clipPath>
						<polyline clip-path="url(#SVGID_36_)" fill="none" stroke="#FFFFFF" stroke-width="3" stroke-miterlimit="10" points="
							1143.483,767.771 1107.216,829.78 1201.402,992.916 1389.775,992.916 1483.962,829.78 1389.775,666.645 1201.403,666.645 
							1166.472,727.146 						"/>
					</g>
				</g>
				<g opacity="0.21" clip-path="url(#SVGID_6_)">
					<g>
						<defs>
							<path id="SVGID_37_" d="M1427.74,837.764L1427.74,837.764z"/>
						</defs>
						<clipPath id="SVGID_38_">
							<use xlink:href="#SVGID_37_"  overflow="visible"/>
						</clipPath>
					</g>
				</g>
				<g opacity="0.21" clip-path="url(#SVGID_6_)">
					<g>
						<defs>
							<rect id="SVGID_39_" x="1247.226" y="789.852" width="100.885" height="87.369"/>
						</defs>
						<clipPath id="SVGID_40_">
							<use xlink:href="#SVGID_39_"  overflow="visible"/>
						</clipPath>
						<polygon clip-path="url(#SVGID_40_)" fill="#FFFFFF" points="1272.735,876.721 1247.802,833.536 1272.735,790.352 
							1322.602,790.352 1347.534,833.536 1322.602,876.721 						"/>
						<path clip-path="url(#SVGID_40_)" fill="#FFFFFF" d="M1322.312,790.852l24.644,42.685l-24.644,42.685h-49.288l-24.645-42.685
							l24.645-42.685H1322.312z M1322.89,789.852h-50.442l-25.222,43.685l25.222,43.685h50.442l25.222-43.685L1322.89,789.852z"/>
					</g>
				</g>
				<g opacity="0.21" clip-path="url(#SVGID_6_)">
					<g>
						<defs>
							<rect id="SVGID_41_" x="859.324" y="397.457" width="14.909" height="10.868"/>
						</defs>
						<clipPath id="SVGID_42_">
							<use xlink:href="#SVGID_41_"  overflow="visible"/>
						</clipPath>
						
							<line clip-path="url(#SVGID_42_)" fill="none" stroke="#FFFFFF" stroke-width="3" stroke-miterlimit="10" x1="860.119" y1="398.729" x2="873.438" y2="407.053"/>
					</g>
				</g>
				<g opacity="0.21" clip-path="url(#SVGID_6_)">
					<g>
						<defs>
							<rect id="SVGID_43_" x="1023.615" y="324.14" width="32.634" height="32.633"/>
						</defs>
						<clipPath id="SVGID_44_">
							<use xlink:href="#SVGID_43_"  overflow="visible"/>
						</clipPath>
						<path clip-path="url(#SVGID_44_)" fill="#191919" d="M1055.749,340.456c0,8.734-7.082,15.816-15.817,15.816
							s-15.817-7.082-15.817-15.816c0-8.736,7.082-15.816,15.817-15.816S1055.749,331.72,1055.749,340.456"/>
						
							<circle clip-path="url(#SVGID_44_)" fill="none" stroke="#FFFFFF" stroke-miterlimit="10" cx="1039.932" cy="340.456" r="15.817"/>
					</g>
				</g>
				<g opacity="0.21" clip-path="url(#SVGID_6_)">
					<g>
						<defs>
							<rect id="SVGID_45_" x="1553.38" y="462.358" width="13.14" height="9.264"/>
						</defs>
						<clipPath id="SVGID_46_">
							<use xlink:href="#SVGID_45_"  overflow="visible"/>
						</clipPath>
						
							<line clip-path="url(#SVGID_46_)" fill="none" stroke="#FFFFFF" stroke-width="3" stroke-miterlimit="10" x1="1554.124" y1="470.32" x2="1565.778" y2="463.661"/>
					</g>
				</g>
				<g opacity="0.21" clip-path="url(#SVGID_6_)">
					<g>
						<defs>
							<rect id="SVGID_47_" x="1601.66" y="472.348" width="13.15" height="9.265"/>
						</defs>
						<clipPath id="SVGID_48_">
							<use xlink:href="#SVGID_47_"  overflow="visible"/>
						</clipPath>
						
							<line clip-path="url(#SVGID_48_)" fill="none" stroke="#FFFFFF" stroke-width="3" stroke-miterlimit="10" x1="1602.407" y1="480.311" x2="1614.062" y2="473.65"/>
					</g>
				</g>
				<g opacity="0.21" clip-path="url(#SVGID_6_)">
					<g>
						<defs>
							<rect id="SVGID_49_" x="1644.95" y="548.935" width="13.14" height="9.266"/>
						</defs>
						<clipPath id="SVGID_50_">
							<use xlink:href="#SVGID_49_"  overflow="visible"/>
						</clipPath>
						
							<line clip-path="url(#SVGID_50_)" fill="none" stroke="#FFFFFF" stroke-width="3" stroke-miterlimit="10" x1="1645.695" y1="556.897" x2="1657.35" y2="550.237"/>
					</g>
				</g>
				<g opacity="0.21" clip-path="url(#SVGID_6_)">
					<g>
						<defs>
							<rect id="SVGID_51_" x="1590.01" y="525.626" width="13.141" height="9.265"/>
						</defs>
						<clipPath id="SVGID_52_">
							<use xlink:href="#SVGID_51_"  overflow="visible"/>
						</clipPath>
						
							<line clip-path="url(#SVGID_52_)" fill="none" stroke="#FFFFFF" stroke-width="3" stroke-miterlimit="10" x1="1590.753" y1="533.588" x2="1602.407" y2="526.929"/>
					</g>
				</g>
				<g opacity="0.21" clip-path="url(#SVGID_6_)">
					<g>
						<defs>
							<rect id="SVGID_53_" x="1105.029" y="397.063" width="3" height="19.979"/>
						</defs>
						<clipPath id="SVGID_54_">
							<use xlink:href="#SVGID_53_"  overflow="visible"/>
						</clipPath>
						
							<line clip-path="url(#SVGID_54_)" fill="none" stroke="#FFFFFF" stroke-width="3" stroke-miterlimit="10" x1="1106.529" y1="417.043" x2="1106.529" y2="397.063"/>
					</g>
				</g>
				<g opacity="0.21" clip-path="url(#SVGID_6_)">
					<g>
						<defs>
							<rect id="SVGID_55_" x="1124.854" y="1010.124" width="8.285" height="11.648"/>
						</defs>
						<clipPath id="SVGID_56_">
							<use xlink:href="#SVGID_55_"  overflow="visible"/>
						</clipPath>
						
							<line clip-path="url(#SVGID_56_)" fill="none" stroke="#FFFFFF" stroke-width="3" stroke-miterlimit="10" x1="1131.828" y1="1010.853" x2="1126.165" y2="1021.045"/>
					</g>
				</g>
				<g opacity="0.21" clip-path="url(#SVGID_6_)">
					<g>
						<defs>
							<rect id="SVGID_57_" x="1189.786" y="1006.794" width="8.286" height="11.648"/>
						</defs>
						<clipPath id="SVGID_58_">
							<use xlink:href="#SVGID_57_"  overflow="visible"/>
						</clipPath>
						
							<line clip-path="url(#SVGID_58_)" fill="none" stroke="#FFFFFF" stroke-width="3" stroke-miterlimit="10" x1="1196.761" y1="1007.522" x2="1191.098" y2="1017.715"/>
					</g>
				</g>
				<g opacity="0.21" clip-path="url(#SVGID_6_)">
					<g>
						<defs>
							<rect id="SVGID_59_" x="1213.096" y="1063.401" width="8.285" height="11.649"/>
						</defs>
						<clipPath id="SVGID_60_">
							<use xlink:href="#SVGID_59_"  overflow="visible"/>
						</clipPath>
						
							<line clip-path="url(#SVGID_60_)" fill="none" stroke="#FFFFFF" stroke-width="3" stroke-miterlimit="10" x1="1220.07" y1="1064.131" x2="1214.407" y2="1074.322"/>
					</g>
				</g>
			</g>
		</g>
	</g>
	<polygon clip-path="url(#SVGID_2_)" fill="#F2F2F2" points="1345.631,755.26 1250.368,755.26 1202.737,837.76 1250.368,920.26 
		1345.631,920.26 1393.263,837.76 	"/>
	<polygon clip-path="url(#SVGID_2_)" fill="none" stroke="#CCCCCC" stroke-width="6" stroke-miterlimit="10" points="
		1345.631,755.26 1250.368,755.26 1202.737,837.76 1250.368,920.26 1345.631,920.26 1393.263,837.76 	"/>
	<g clip-path="url(#SVGID_2_)">
		<text transform="matrix(1 0 0 1 1231.377 857.2266)" font-family="'Krungthep'" font-size="53">PLAY</text>
	</g>
	<g clip-path="url(#SVGID_2_)">
		<defs>
			<rect id="SVGID_61_" x="522.5" y="256.26" width="1500" height="1080"/>
		</defs>
		<clipPath id="SVGID_62_">
			<use xlink:href="#SVGID_61_"  overflow="visible"/>
		</clipPath>
		<g opacity="0.33" clip-path="url(#SVGID_62_)">
			<g>
				<defs>
					<rect id="SVGID_63_" x="591" y="317.76" width="179" height="256"/>
				</defs>
				<clipPath id="SVGID_64_">
					<use xlink:href="#SVGID_63_"  overflow="visible"/>
				</clipPath>
				<polyline clip-path="url(#SVGID_64_)" fill="#282828" points="634.761,318.26 769.5,318.26 769.5,573.26 591.5,573.26 
					591.5,318.26 609.604,318.26 				"/>
				<polyline clip-path="url(#SVGID_64_)" fill="none" stroke="#FFFFFF" stroke-miterlimit="10" points="634.761,318.26 
					769.5,318.26 769.5,573.26 591.5,573.26 591.5,318.26 609.604,318.26 				"/>
			</g>
		</g>
	</g>
	<g clip-path="url(#SVGID_2_)">
		<text transform="matrix(1 0 0 1 615.6465 545.5322)" fill="#FCFCFC" font-family="'Krungthep'" font-size="32">ma</text>
	</g>
	<g clip-path="url(#SVGID_2_)">
		<text transform="matrix(1 0 0 1 668.9585 545.5322)" fill="#FFFFFF" font-family="'Krungthep'" font-size="32">ze</text>
	</g>
	<g clip-path="url(#SVGID_2_)">
		<text transform="matrix(1 0 0 1 711.6206 545.5322)" fill="#FFFFFF" font-family="'Krungthep'" font-size="28"> it</text>
	</g>
	<g clip-path="url(#SVGID_2_)">
		<defs>
			<rect id="SVGID_65_" x="522.5" y="256.26" width="1500" height="1080"/>
		</defs>
		<clipPath id="SVGID_66_">
			<use xlink:href="#SVGID_65_"  overflow="visible"/>
		</clipPath>
		<path clip-path="url(#SVGID_66_)" fill="#FFFFFF" d="M666.868,375.795c-0.686,1.521-1.173,2.96-2.252,4.276
			c-0.469,0.57-0.994,1.094-1.56,1.568c-0.46,0.387-1.003,0.67-1.389,1.115c-0.746-0.029-1.416,0.516-1.922,1.074
			c-1.102,1.217-2.276,2.787-4.092,2.794c-1.663,0.007-2.969-1.349-4.128-2.371c-1.076-0.948-2.198-1.771-3.52-2.349
			c-0.071-0.03-0.144-0.059-0.216-0.088c-0.044-0.034-0.092-0.053-0.142-0.06c-2.238-0.892-4.86-1.153-7.194-0.491
			c-0.162-1.004-1.119-2.188-2.189-2.056c-0.317,0.039-0.508,0.464-0.176,0.649c0.668,0.375,1.333,0.548,1.566,1.394
			c0.232,0.847-0.293,1.692-1.139,1.879c-0.346,0.076-0.277,0.673,0.085,0.63c0.982-0.115,1.716-0.9,1.854-1.852
			c2.338-0.389,4.652-0.296,6.84,0.585c0.551,1.384,0.153,2.905-1.027,3.843c-0.255,0.203,0.078,0.632,0.349,0.452
			c1.276-0.847,1.909-2.399,1.627-3.856c0.01,0.004,0.02,0.008,0.029,0.012c2.109,1.107,3.517,3.244,5.7,4.195
			c1.988,0.864,3.838-0.004,5.279-1.438c0.43-0.428,0.783-1.004,1.245-1.389c0.372-0.312,1.471-0.432,1.885-0.107
			c0.28,0.219,0.441,1.027,0.528,1.346c0.457,1.662,0.32,3.34-0.178,4.971c-0.166,0.543,0.663,0.762,0.844,0.232
			c0.502-1.477,0.637-3.039,0.377-4.578c-0.169-1.001-0.494-2.439-1.399-3.097c1.154-0.528,2.244-1.825,2.913-2.679
			c0.98-1.248,1.917-2.812,2.127-4.41C667.642,375.613,667.022,375.454,666.868,375.795"/>
		<path clip-path="url(#SVGID_66_)" fill="#FFFFFF" d="M674.296,450.831c1.761-0.801,2.472-3.858,2.781-5.535
			c0.7-3.795,0.591-7.686,0.464-11.524c-0.055-1.698-0.139-3.399-0.787-4.993c-0.299-0.734-0.443-1.117-0.272-1.932
			c0.089-0.426,0.302-0.85,0.428-1.27c0.263-0.871,0.452-1.764,0.578-2.664c0.472-3.391,0.055-7.197-1.596-10.24
			c-0.108-0.196-0.226-0.387-0.351-0.572c2.44-1.602,2.68-4.956,1.31-7.359c-0.148-0.26-0.315-0.506-0.491-0.744
			c3.467-3.781,2.702-9.562-1.09-12.707c1.427-0.609,2.441-1.968,2.718-3.525c0.376-2.113-0.626-4.141-1.956-5.712
			c-0.044-0.05-0.09-0.087-0.139-0.11c1.679-2.52,1.911-5.916,0.139-8.708c-1.02-1.606-2.528-2.657-4.236-3.312
			c0.612-0.071,1.199-0.199,1.737-0.383c3.345-1.144,3.673-4.779,3.195-7.806c-0.253-1.604-0.651-3.413-1.835-4.61
			c-1.191-1.205-3.116-1.508-4.739-1.605c-1.66-0.1-3.663,0.382-4.373,2.081c-0.162,0.389-0.212,0.805-0.168,1.204
			c-1.623-1.029-3.431-1.934-5.329-2.23c-2.249-0.352-4.541,0.131-6.63,0.971c-2.064,0.834-4.778,2.355-5.89,4.48
			c-3.042-2.419-7.472,0.081-6.997,3.91c-5.518-0.114-10.321,4.795-9.284,10.412c-0.967,0.074-1.919,0.249-2.834,0.65
			c-3.393,1.484-5.141,5.916-3.612,9.297c0.005,0.011,0.011,0.019,0.016,0.027c-5.164,2.477-6.614,9.484-2.836,13.899
			c-1.33,0.729-2.259,2.196-2.753,3.709c-0.414,1.267-0.782,2.776-0.506,4.108c0.12,0.58,0.405,1.92,1.025,2.321
			c-1.406,1.106-2.436,2.571-2.731,4.664c-0.424,3.001,0.603,6.265,3.609,7.304c-0.767,0.947-1.033,2.055-1.211,3.26
			c-0.202,1.359-0.395,2.754-0.208,4.127c0.314,2.307,1.853,4.029,4.118,4.576c0.119,0.028,0.237,0.051,0.354,0.074
			c-2.096,2.92-1.056,6.799,2.159,8.375c-1.162,3.012-1.745,7.393,0.251,10.137c0.911,1.252,2.692,1.813,4.009,1.256
			c-0.326,1.455-0.339,3.005,0.558,4.226c0.371,0.505,0.841,0.858,1.361,1.089c-0.546,2.553,1.089,4.824,3.639,5.159
			c-0.824,3.24,0.811,7.298,3.542,9.16c2.219,1.514,5.05,0.938,6.569-1.017c0.344,2.69,1.85,5.248,4.345,6.474
			c2.489,1.223,5.573,0.873,7.692-0.862c0.197,1.979,1.08,3.866,2.616,5.18c1.293,1.104,3.143,1.594,4.535,0.565
			c0.444,1.651,2.056,2.823,3.578,3.479c2.103,0.908,4.619,1.013,6.535-0.389c4.149-3.033,3.15-9.637,0.65-13.392
			c-0.047-0.07-0.103-0.118-0.165-0.15c1.678-2.417,2.237-5.454,2.406-8.347c0.217-3.732,0.067-7.943-1.283-11.477
			C676.334,452.318,675.425,451.374,674.296,450.831 M677.285,465.689c-0.202,2.847-0.84,5.901-2.735,8.136
			c-2.022,2.385-5.112,3.319-8.002,4.178c-0.46,0.138-0.399,0.922,0.118,0.873c1.657-0.155,3.13,0.812,3.583,2.432
			c0.155,0.55,1.013,0.316,0.858-0.236c-0.364-1.298-1.29-2.305-2.465-2.787c2.481-0.818,4.9-1.894,6.608-3.931
			c2.072,3.188,3.141,8.563,0.197,11.558c-2.784,2.83-8.343,1.264-9.761-2.295c0.164-0.396-0.37-0.853-0.724-0.486
			c-1.425,1.479-3.424,0.238-4.486-1.035c-1.109-1.329-1.619-3.01-1.591-4.723c0.007-0.373-0.498-0.604-0.758-0.315
			c-1.911,2.114-5.14,2.598-7.637,1.239c-2.553-1.39-3.806-4.365-3.671-7.172c0.024-0.517-0.719-0.576-0.871-0.117
			c-1.009,3.057-4.624,3.505-6.792,1.396c-2.039-1.983-3.181-5.323-2.284-8.071c0.087-0.27-0.147-0.547-0.417-0.547
			c-2.281,0-3.947-1.923-3.662-4.144c1.211,0.321,2.601,0.057,3.694-0.597c0.759-0.453,1.433-1.018,2.03-1.662
			c-0.722,2.766-0.113,5.525,2.269,7.4c0.316,0.249,0.724-0.135,0.449-0.449c-1.058-1.205-1.977-2.215-2.1-3.889
			c-0.095-1.283,0.092-2.621,0.551-3.824c1.053-2.761,3.386-3.848,5.989-4.748c0.402-0.14,0.374-0.862-0.107-0.799
			c-1.698,0.223-3.323,1.02-4.596,2.184c0.937-2.533,1.209-5.364,0.87-7.797c-0.032-0.231-0.244-0.326-0.45-0.311
			c-0.001-0.018-0.004-0.033-0.006-0.05c1.054-0.05,2.098-0.222,3.107-0.554c1.696-0.561,3.131-1.486,4.349-2.648
			c0.777,4.465,6.667,4.708,9.223,7.717c1.454,1.713,2.313,3.721,4.267,4.975c1.785,1.147,4.067,1.83,6.154,2.127
			c0.083,0.012,0.158,0,0.224-0.022c-0.666,1.052-0.619,2.487-0.374,3.655c0.081,0.386,0.664,0.285,0.671-0.092
			c0.02-0.977-0.126-2.065,0.368-2.959c0.634-1.145,2.004-1.109,3.14-1.012c0.497,0.043,0.607-0.771,0.118-0.873l-0.339-0.072
			c-0.074-0.014-0.149-0.002-0.218,0.027c-1.12-0.05-2.298,0.096-3.076,0.944c0.011-0.162-0.075-0.326-0.295-0.394
			c-2.028-0.621-4.105-0.916-5.925-2.096c-1.81-1.174-2.622-3.078-3.958-4.685c-2.613-3.142-8.388-3.218-9.412-7.679
			c-0.008-0.037-0.023-0.066-0.041-0.092c2.153-2.293,3.566-5.347,4.5-8.34c0.263,0.129,0.546,0.219,0.844,0.256
			c1.074,0.135,2.501-0.443,2.829-1.552c0.111-0.374-0.353-0.59-0.618-0.358c-0.696,0.604-1.239,1.239-2.277,1.041
			c-0.808-0.154-1.347-0.742-1.684-1.453c-0.154-0.327-0.642-0.09-0.564,0.238c0.119,0.5,0.382,0.949,0.738,1.303
			c-0.029,0.041-0.055,0.086-0.071,0.142c-1.408,4.578-3.963,9.423-8.809,11.045c-2.546,0.853-5.309,0.578-7.877-0.021
			c-2.443-0.57-4.925-1.377-6.654-3.289c-0.235-0.258-0.59,0.117-0.378,0.379c1.658,2.039,4.093,3.057,6.583,3.697
			c1.545,0.395,3.167,0.66,4.779,0.66c0.013,0.045,0.028,0.09,0.041,0.133c0.051,0.172,0.061,0.345,0.052,0.524
			c-0.006,0.144,0.1,0.229,0.218,0.255c0.377,3.903-0.713,7.984-3.405,10.916c-1.39,1.516-4.176,3.04-5.896,1.039
			c-1.259-1.466-0.597-3.763,0-5.361c0.197-0.541-0.659-0.77-0.858-0.237c-0.403,1.108-1.871,1.358-2.839,0.86
			c-1.076-0.553-1.585-1.828-1.826-2.939c-0.557-2.562-0.115-5.26,0.828-7.67c0.089-0.229-0.101-0.447-0.297-0.523
			c-3.148-1.213-4.078-4.979-2.15-7.65c1.937,0.194,3.603-0.438,4.976-1.543c1.684-0.332,3.11-0.487,4.778,0.101
			c0.465,0.163,0.667-0.431,0.429-0.735c-1.556-2.01-1.139-4.26,0.26-6.174c0.028-0.039,0.04-0.076,0.044-0.111
			c2.236-0.867,3.201-3.586,3.473-6.004c0.21,0.043,0.439,0.035,0.68-0.009c-0.596,1.104-0.531,2.5,0.134,3.615
			c0.814,1.364,2.316,2.03,3.837,2.248c-0.929,1.344-1.441,3.017-0.773,4.598c0.461,1.093,2.264,2.923,3.598,2.118
			c0.183-0.111,0.237-0.303,0.204-0.502c-0.005-0.032-0.01-0.062-0.016-0.096c-0.034-0.211-0.284-0.303-0.466-0.264
			c-0.017,0.004-0.034,0.006-0.051,0.01c-0.058,0.013-0.11,0.047-0.152,0.092c-0.944,0.454-2.224-1.346-2.421-2.025
			c-0.417-1.439,0.288-2.902,1.202-3.98c0.242-0.285,0.087-0.728-0.306-0.741c-1.322-0.043-2.661-0.416-3.594-1.408
			c-1.023-1.089-1.156-2.813-0.228-3.993c1.447-0.681,3.035-2.111,3.741-2.568c1.636-1.062,3.196-1.479,5.151-1.37
			c1.614,0.089,3.212,0.267,4.774-0.259c0.129-0.043,0.258-0.094,0.386-0.146c0.895,1.002,1.898,1.735,2.557,2.965
			c0.679,1.265,0.989,2.647,0.977,4.079c-0.002,0.253,0.206,0.428,0.444,0.444c1.93,0.143,3.358,1.92,2.821,3.84
			c-0.559,1.996-2.743,2.69-4.526,1.899c-0.308-0.137-0.569,0.276-0.27,0.461c2.117,1.295,4.917,0.281,5.617-2.133
			c0.379-1.309,0.044-2.552-0.717-3.468c0.049-0.041,0.082-0.1,0.078-0.179c-0.063-1.387,0.568-3.286,2.369-2.964
			c0.818,0.146,1.578,0.735,2.362,1.011c1.439,0.507,3.078,0.6,4.476-0.079c1.158-0.56,2.122-1.624,2.314-2.925
			c0.24-1.629-1.079-2.525-2.179-3.489c-0.418-0.366-1.028,0.228-0.616,0.616c0.819,0.773,1.992,1.559,1.909,2.854
			c-0.058,0.896-0.984,1.711-1.717,2.102c-1.878,1.002-3.756,0.125-5.517-0.626c-2.35-1.003-4.321,0.838-3.965,3.192
			c-0.552-0.472-1.238-0.809-2.001-0.945c-0.094-2.524-1.294-5.762-3.605-7.043c4.026-2.221,6.766-8.262,3.981-12.219
			c0.712,0.021,1.432-0.113,2.103-0.438c2.358-1.139,4.215-4.262,3.753-6.922c1.906,0.369,3.737-1.252,3.166-3.387
			c-0.146-0.543-0.929-0.308-0.831,0.229c0.309,1.687-1.2,2.922-2.761,2.075c-0.311-0.168-0.799,0.118-0.652,0.501
			c0.885,2.319-0.701,5.369-2.772,6.578c-1.97,1.151-4.512,0.34-5.686-1.541c-0.205-0.328-0.696-0.039-0.518,0.303
			c0.648,1.247,1.835,2.125,3.157,2.458c-0.003,0.025-0.004,0.055-0.001,0.081c0.187,1.556-0.711,2.944-2.243,3.345
			c-0.553,0.144-0.319,1.002,0.237,0.856c1.41-0.368,2.466-1.456,2.806-2.797c0.92,2.088,0.308,4.72-0.772,6.649
			c-1.257,2.245-3.439,4.063-6.084,4.235c-2.434,0.159-4.706-0.509-7.021,0.574c-0.735,0.344-5.857,4.243-6.37,3.534
			c-0.258-0.354-0.802-0.235-0.829,0.226c-0.156,2.642-1.138,6.274-4.464,6.117c-0.19-0.009-0.382,0.144-0.428,0.325
			c-1.007,3.985-3.809,8.578-8.573,7.844c-2.316-0.355-3.838-2.024-4.036-4.358c-0.174-2.042,0.016-4.921,1.276-6.604
			c0.02-0.026,0.032-0.054,0.041-0.081c3.793,0.849,7.817-1.369,10.098-4.297c0.334-0.428-0.267-1.036-0.604-0.603
			c-2.239,2.88-6.678,5.438-10.362,3.753c-2.087-0.953-2.764-3.309-2.64-5.445c0.136-2.334,1.207-4.243,3.226-5.457
			c3.728-2.241,8.019-2.643,12.042-4.031c1.627-0.561,3.285-1.576,4.288-2.977c1.123,4.023,7.563,5.515,10.301,2.385
			c0.56,2.554,3.295,3.99,5.884,2.877c0.515-0.221,0.07-0.969-0.44-0.754c-2.412,1.024-4.837-0.786-4.709-3.353
			c0.02-0.399-0.597-0.583-0.776-0.21c-1.275,2.654-4.552,2.729-6.93,1.604c-1.667-0.789-2.626-2.204-2.646-3.852
			c0.173-0.494,0.266-1.021,0.26-1.582c0.017-0.051,0.03-0.102,0.049-0.152c1.551-4.265,6.932-5.295,10.54-7.297
			c0.063,0.221,0.149,0.437,0.268,0.646c0.572,1.016,1.889,1.788,3.045,1.336c0.383-0.15,0.384-0.848-0.107-0.792
			c-2.622,0.292-2.862-2.449-2.034-4.301c0.148-0.329-0.287-0.599-0.49-0.287c-0.535,0.821-0.879,1.823-0.795,2.795
			c-1.448,0.476-2.83,1.146-4.221,1.761c-1.404,0.621-2.816,1.262-4.067,2.163c-0.964,0.695-1.824,1.591-2.426,2.619
			c-0.981-3.317-4.64-4.749-7.814-5.495c0.894-0.73,1.867-2.531,1.132-3.635c-0.146-0.221-0.503-0.197-0.577,0.076
			c-0.116,0.427-0.023,0.851-0.109,1.287c-0.115,0.582-0.4,1.129-0.827,1.541c-0.948,0.918-2.296,0.974-3.459,0.498
			c-0.292-0.119-0.467,0.344-0.21,0.498c1.017,0.605,2.285,0.67,3.34,0.18c2.062,0.648,4.314,1.251,5.958,2.721
			c1.144,1.023,1.898,2.426,1.912,3.854c-0.122,0.432-0.197,0.875-0.216,1.334c-0.114,0.334-0.272,0.666-0.488,0.988
			c-1.297,1.932-3.617,2.695-5.769,3.219c-2.143,0.519-4.265,1.008-6.339,1.773c-1.481,0.547-2.941,1.16-4.183,1.987
			c-0.047-0.112-0.151-0.2-0.276-0.212c-0.471-0.526-0.677-2.078-0.67-2.633c0.01-0.959,0.281-1.985,0.578-2.894
			c0.658-2.009,2.083-3.741,4.322-3.901c0.245-0.018,0.342-0.424,0.063-0.463c-0.612-0.084-1.176-0.033-1.691,0.123
			c-0.014-0.027-0.032-0.055-0.054-0.08c-3.911-4.633-1.78-11.929,4.207-13.343c1.334-0.315,2.75-0.317,4.079,0.028
			c1.054,0.273,2.222,1.329,3.333,1.199c0.419-0.047,0.711-0.295,1.066-0.491c0.647-0.358,1.296-0.573,2.044-0.58
			c1.514-0.015,2.755,0.694,3.728,1.806c0.184,0.209,0.488-0.058,0.37-0.285c-0.578-1.117-1.686-1.873-2.895-2.168
			c-1.375-0.336-2.412,0.01-3.658,0.525c-1.404,0.581-3.329-0.811-4.857-1.018c-1.527-0.207-3.111-0.03-4.555,0.511
			c-0.018,0.006-0.034,0.015-0.051,0.021c-0.002-0.008-0.003-0.015-0.006-0.023c-0.775-2.137-0.533-4.411,0.802-6.285
			c1.767-2.48,4.598-2.672,7.407-2.684c2.174-0.008,4.392-0.153,6.347-1.205c1.413-0.758,3.247-2.405,2.656-4.19
			c-0.046-0.137-0.274-0.123-0.264,0.036c0.091,1.504-1.403,2.79-2.606,3.445c-1.194,0.649-2.577,0.965-3.922,1.086
			c-1.342,0.121-2.718,0.039-4.072,0.099c-0.322-5.362,3.637-9.955,9.241-9.469c0.297,0.026,0.489-0.302,0.426-0.558
			c-0.827-3.406,3.137-5.727,5.69-3.397c-0.235,0.821-0.226,1.715,0.135,2.684c0.086,0.232,0.412,0.142,0.37-0.102
			c-0.16-0.914-0.075-1.74,0.188-2.485c0.113-0.1,0.184-0.247,0.16-0.398c1.128-2.475,4.266-3.99,6.801-4.778
			c1.836-0.571,3.794-0.81,5.685-0.363c1.828,0.433,3.362,1.439,4.992,2.316c0.075,0.041,0.148,0.054,0.215,0.048
			c0.297,0.472,0.767,0.829,1.376,0.941c0.296,0.055,0.418-0.361,0.126-0.455c-1.865-0.59-1.366-2.814-0.002-3.627
			c1.301-0.775,2.974-0.532,4.38-0.242c2.553,0.527,3.542,2.22,4.016,4.635c0.366,1.864,0.629,4.087-0.276,5.84
			c-1.077,2.086-3.542,2.38-5.651,2.229c-2.169-0.153-4.265-0.898-5.454-2.82c-0.833-1.346-1.343-2.857-2.897-3.535
			c-3.257-1.418-6.262,1.404-7.046,4.393c-0.098,0.377,0.445,0.514,0.576,0.16c0.78-2.119,2.336-4.219,4.831-4.148
			c2.625,0.074,3.022,2.508,4.353,4.207c0.604,0.771,1.43,1.363,2.366,1.787c-1.002,0.145-1.933,0.535-2.646,1.324
			c-1.545-0.797-3.364-1.19-5.032-0.527c-1.572,0.625-2.572,1.961-2.632,3.642c-0.009,0.245,0.401,0.312,0.438,0.06
			c0.529-3.555,4.594-3.746,7.116-2.286c0.211,0.122,0.435,0.032,0.571-0.149c1.34-1.792,4.034-1.386,5.912-0.883
			c2.118,0.566,3.988,1.686,5.093,3.634c2.189,3.86,0.317,8.576-3.724,10.194c-0.513,0.205-0.303,1.04,0.232,0.844
			c1.374-0.505,2.518-1.345,3.386-2.386c0.01,0.015,0.018,0.03,0.03,0.043c1.081,1.278,1.924,2.903,1.755,4.628
			c-0.163,1.65-1.327,3.064-2.964,3.383c-0.403,0.079-0.398,0.616-0.106,0.812c4.105,2.768,4.645,8.099,1.854,11.968
			c-0.696-0.802-1.539-1.481-2.444-2.022c-0.442-0.267-5.159-2.428-5.285-2.066c0.11-0.317-0.351-0.588-0.572-0.333
			c-0.669,0.774,0.408,1.169,1.01,1.353c1.767,0.54,3.547,1.168,5.068,2.244c2.888,2.044,4.553,6.321,1.408,8.907
			c-1.836-2.218-4.981-3.401-7.791-3.917c-0.057-0.172-0.241-0.324-0.446-0.287c-0.236,0.037-0.471,0.084-0.704,0.141
			c-0.407,0.088-0.411,0.739,0,0.826c2.039,0.432,4.037,0.954,5.894,1.934c1.872,0.987,2.996,2.414,3.709,4.386
			c0.742,2.057,1.061,4.261,0.977,6.444c-0.045,1.146-0.203,2.287-0.477,3.401c-0.216,0.879-0.638,1.731-0.786,2.619
			c-0.107,0.644,0.087,1.158,0.318,1.743c0.468,1.185,0.697,2.308,0.778,3.583c0.131,2.044,0.158,4.112,0.144,6.159
			c-0.015,2.166-0.134,4.339-0.52,6.473c-0.314,1.73-0.885,5.266-3.106,5.359c-1.027-0.242-2.177-0.254-3.388-0.125
			c-0.345,0.035-0.363,0.547,0,0.55c1.55,0.008,3.294-0.023,4.64,0.866c1.332,0.877,1.823,2.521,2.179,3.988
			C677.335,458.947,677.521,462.359,677.285,465.689 M633.487,431.857c-0.888-0.196-1.821-0.258-2.716-0.121
			c1.326-1.534,2.277-3.521,2.815-5.458c0.197-0.004,0.387-0.02,0.571-0.045C632.728,427.743,632.606,430.025,633.487,431.857"/>
		<path clip-path="url(#SVGID_66_)" fill="#FFFFFF" d="M670.261,427.096c-1.856-0.575-4.305,0.247-4.927,2.231
			c-0.51,1.629-0.222,3.939,0.697,5.483c-1.541,0.347-3.01,0.904-3.689,2.407c-1.576-0.165-3.266,2.082-3.116,3.488
			c0.033,0.312,0.48,0.326,0.495,0c0.036-0.797,0.462-1.391,1.034-1.905c0.732-0.659,2.004-1.157,2.352,0.192
			c0.15,0.582,0.127,1.248,0.107,1.846c-0.014,0.418,0.042,1.168-0.112,1.627c-0.019,0.014-0.039,0.025-0.056,0.044
			c-0.016,0.019-0.032,0.036-0.048,0.055c-0.138,0.155-0.132,0.351,0,0.509c0.02,0.024,0.041,0.049,0.062,0.074
			c0.111,0.133,0.322,0.133,0.463,0.059c0.702-0.365,0.538-2.106,0.536-2.74c-0.003-1.028-0.042-2.35-0.999-2.986
			c-0.064-0.043-0.129-0.078-0.194-0.111c0.89-1.305,2.504-1.617,4.004-1.851c0.355-0.055,0.372-0.502,0.191-0.723
			c-0.983-1.2-1.087-2.968-0.985-4.462c0.152-2.217,2.24-2.645,4.079-2.45C670.619,427.933,670.676,427.224,670.261,427.096"/>
		<path clip-path="url(#SVGID_66_)" fill="#FFFFFF" d="M673.251,429.839c-0.319-0.256-0.842,0.062-0.603,0.465
			c0.348,0.584,0.606,1.04,0.418,1.727c-0.247,0.904-1.034,1.322-1.952,1.166c-0.401-0.066-0.767,0.404-0.425,0.73
			c2.367,2.262,1.747,5.762-0.991,7.38c-0.31,0.183-0.039,0.615,0.276,0.472c3.072-1.389,3.772-5.152,1.967-7.721
			c0.731-0.115,1.392-0.503,1.793-1.199C674.283,431.905,674.116,430.532,673.251,429.839"/>
		<path clip-path="url(#SVGID_66_)" fill="#FFFFFF" d="M663.217,463.13c-2.581-0.459-1.213-4.486-1.935-6.238
			c-0.661-1.607-2.165-2.6-3.856-2.789c-0.567-0.063-0.563,0.826,0,0.89c1.238,0.138,2.341,0.87,2.921,1.981
			c0.634,1.215,0.275,2.617,0.367,3.92c0.06,0.844,0.343,1.715,0.893,2.324c-2.592,0.145-5.929,0.371-6.253,3.408
			c-0.263,2.46,1.675,3.699,3.765,4.322c-0.782,0.306-1.495,0.787-2.065,1.438c-0.458,0.524-1.285,2.13-0.001,2.192
			c0.231,0.012,0.272-0.289,0.109-0.402c-0.789-0.554,1.322-2.005,1.746-2.223c0.884-0.456,1.845-0.592,2.828-0.494
			c0.564,0.057,0.551-0.811,0-0.875c-2.084-0.243-6.274-1.125-5.442-4.189c0.738-2.722,4.719-2.168,6.805-2.395
			C663.551,463.952,663.753,463.226,663.217,463.13"/>
		<path clip-path="url(#SVGID_66_)" fill="#F7931E" d="M712.275,373.744c-1.035-0.549-2.628-0.583-3.77-0.446
			c-0.628,0.074-1.628,0.282-2.183,0.801c-0.514-2.939-2.301-5.596-4.616-7.438c-1.132-0.899-2.436-1.673-3.829-2.089
			c-0.7-0.209-2.727-0.689-2.915,0.441c-0.039,0.237,0.099,0.477,0.364,0.477h0.081c0.159,0,0.299-0.137,0.297-0.297
			c-0.008-0.502,3.613,0.939,3.944,1.129c1.034,0.594,1.977,1.336,2.804,2.193c1.646,1.709,2.679,3.785,3.377,6.031
			c0.025,0.08,0.07,0.131,0.122,0.162c-0.22,0.883,0.489,2.038,0.987,2.678c0.7,0.896,1.732,1.623,2.875,1.776
			c0.252,0.034,0.477-0.323,0.193-0.459c-0.771-0.367-1.502-0.733-2.087-1.373c-0.529-0.578-1.319-1.614-0.99-2.396
			c0.341-0.811,1.88-0.826,2.647-0.803c0.843,0.023,1.697,0.326,2.53,0.236C712.408,374.335,712.596,373.915,712.275,373.744"/>
		<path clip-path="url(#SVGID_66_)" fill="#F7931E" d="M701.871,407.228c-0.079-0.73-0.685-1.104-1.333-0.749
			c-0.399,0.218-0.128,0.886,0.313,0.742c0.27-0.087-0.462,1.721-0.524,1.819c-0.382,0.596-0.893,1.127-1.471,1.535
			c-1.067,0.754-2.306,1.086-3.602,1c-0.342-0.022-0.546,0.393-0.384,0.668c1.216,2.069,0.066,4.618-2.357,4.916
			c-0.479,0.058-0.622,0.707-0.118,0.87c2.214,0.722,3.06,3.353,2.512,5.464c-0.625,2.405-2.72,4.125-4.691,5.449
			c-0.209,0.139-0.327,0.503-0.089,0.69c2.296,1.802,2.942,4.919,1.757,7.549c-0.039,0.087-0.039,0.171-0.014,0.243
			c-0.378,0.15-0.719,0.396-0.98,0.734c-0.4,0.515-0.727,1.42-0.257,1.98c0.102,0.121,0.296,0.095,0.401,0
			c0.067-0.061,0.099-0.116,0.084-0.208c-0.199-1.224,1.092-2.246,2.243-1.69c0.618,0.297,0.88,0.922,0.953,1.568
			c0.027,0.229,0.081,0.871,0.052,1.134c-0.082,0.087-0.125,0.208-0.083,0.33c0.006,0.021,0.014,0.041,0.021,0.062
			c0.084,0.246,0.328,0.336,0.559,0.228c0.671-0.317,0.363-1.791,0.223-2.358c-0.227-0.92-0.887-1.66-1.822-1.881
			c-0.244-0.059-0.489-0.074-0.727-0.055c1.413-2.59,0.736-5.914-1.382-7.904c2.228-1.556,4.439-3.65,4.763-6.47
			c0.229-1.994-0.545-4.078-2.177-5.176c2.031-0.86,3.048-3.116,2.22-5.251c1.9-0.09,3.681-1.029,4.841-2.566
			C701.319,409.216,701.967,408.126,701.871,407.228"/>
		<path clip-path="url(#SVGID_66_)" fill="#F7931E" d="M715.157,408.524c1.766,1.301,3.918,2.07,6.104,2.227
			c0.709,0.049,4.32,0.243,3.499-1.389c-0.252-0.502-0.966-0.062-0.744,0.434c-0.044-0.097-2.125,0.099-2.371,0.09
			c-0.858-0.032-1.711-0.174-2.536-0.407c-1.716-0.487-3.313-1.392-4.582-2.65c-2.52-2.497-3.565-6.194-2.906-9.655
			c0.074-0.386-0.439-0.814-0.742-0.432c-0.836,1.053-2.342,0.965-3.306,0.114c-0.786-0.693-1.202-1.715-1.49-2.696
			c-0.696-2.372-0.806-4.888-0.215-7.291c0.112-0.451-0.406-0.701-0.736-0.429c-2.056,1.692-4.83,2.919-7.531,2.262
			c-2.42-0.588-4.372-2.769-4.352-5.3c0.003-0.329-0.468-0.314-0.502,0c-0.294,2.759,1.727,5.213,4.296,6.025
			c2.691,0.854,5.489-0.086,7.739-1.631c-0.455,2.789-0.194,6.027,1.191,8.443c0.121,0.211,0.265,0.414,0.425,0.605
			c-1.795-0.168-3.707,0.753-5.091,1.904c-1.373,1.144-2.48,2.568-3.842,3.725c-1.637,1.389-3.707,2.066-5.621,2.971
			c-0.141,0.066-0.155,0.218-0.099,0.337c-1.039-0.472-2.451-0.062-2.466,1.31c-0.003,0.302,0.438,0.357,0.52,0.071
			c0.326-1.137,1.705-1.055,2.153-0.057c0.181,0.399,0.186,0.835,0.06,1.257c-0.067,0.225-0.33,0.866-0.596,1.086
			c-0.038-0.001-0.076,0.003-0.11,0.016l-0.044,0.019c-0.165,0.067-0.316,0.206-0.306,0.401c0.001,0.017,0.002,0.033,0.003,0.049
			c0.009,0.174,0.124,0.376,0.312,0.41c0.74,0.135,1.284-0.961,1.495-1.529c0.304-0.821,0.241-1.736-0.286-2.452
			c-0.128-0.173-0.286-0.313-0.46-0.429c0.01-0.002,0.018,0,0.029-0.004c1.408-0.449,2.845-0.909,4.161-1.592
			c1.299-0.674,2.374-1.666,3.391-2.701c1.965-1.998,4.727-5.051,7.853-3.558c3.5,1.673,0.566,6.822-0.51,9.22
			c-1.26,2.808-2.777,5.49-5.006,7.646c-0.2,0.192-0.16,0.563,0.09,0.698c2.448,1.314,4.058,3.982,3.842,6.793
			c-0.222,2.89-2.359,5.341-5.089,6.176c-0.505,0.155-0.365,0.82,0.118,0.874c3.029,0.336,4.774,3.413,5.212,6.163
			c0.469,2.95-0.244,6.055-1.823,8.574c-1.56,2.488-4.027,3.816-6.176,5.697c-1.168,1.021-3.596,3.602-1.777,5.09
			c0.418,0.343,1.021-0.234,0.604-0.604c-2.06-1.824,4.685-5.99,5.771-6.956c0.612-0.544,1.166-1.149,1.66-1.798
			c0.012-0.009,0.024-0.014,0.036-0.023c1.704-1.711,3.76-2.816,6.081-3.461c2.363-0.658,4.826-0.578,7.201-1.131
			c1.814-0.423,3.585-1.371,4.452-3.091c1.003-1.989,1.126-4.556,0.784-6.719c-0.075-0.474-0.886-0.367-0.843,0.114
			c0.217,2.42,0.299,5.652-1.673,7.431c-1.768,1.595-4.326,1.646-6.556,1.899c-2.922,0.332-5.947,1.17-8.247,3.029
			c0.532-1.027,0.935-2.121,1.192-3.247c0.924-4.057-0.175-9.991-4.453-11.528c2.341-1.192,4.064-3.467,4.38-6.135
			c0.36-3.035-1.213-6.019-3.752-7.625c2.354-2.433,3.908-5.443,5.23-8.541c0.995-2.33,2.86-5.877,1.064-8.214
			c0.457,0.024,0.911-0.06,1.332-0.278C710.246,402.109,711.883,406.113,715.157,408.524"/>
		<path clip-path="url(#SVGID_66_)" fill="#F7931E" d="M723.539,413.181c-1.136,0.736-1.99,1.378-3.426,1.368
			c-1.049-0.007-4.313-0.566-4.607-1.847c-0.079-0.345-0.592-0.254-0.603,0.082c-0.032,0.986,1.076,1.652,2.255,2.067
			c-0.19,0.082-0.369,0.179-0.531,0.289c-1.694,1.163-2.732,3.633-1.732,5.492c-2.114,1.249-3.613,3.414-3.847,5.896
			c-0.085,0.903,0.547,6.31,2.342,5.209c0.292-0.181,0.036-0.603-0.267-0.455c-0.506,0.246-1.193-2.832-1.23-3.215
			c-0.089-0.918-0.002-1.851,0.269-2.731c0.567-1.843,1.889-3.281,3.582-4.158c0.279-0.146,0.256-0.488,0.09-0.698
			c-1.079-1.367-0.123-3.445,1.051-4.422c0.616-0.513,1.377-0.781,2.172-0.671c0.977,0.136,1.391,0.719,1.893,1.471
			c0.182,0.271,0.712,0.203,0.676-0.184c-0.051-0.546-0.262-0.978-0.573-1.31c1.209-0.162,2.424-0.67,2.975-1.694
			C724.189,413.37,723.852,412.978,723.539,413.181"/>
		<path clip-path="url(#SVGID_66_)" fill="#F7931E" d="M716.479,451.422c-1.919-1.069-1.715-2.813-0.527-4.423
			c0.297-0.403-0.375-0.928-0.699-0.539c-3.385,4.061-7.397,7.423-11.177,11.086c-1.509-0.961-3.995-0.002-4.723,1.598
			c-0.146,0.318,0.289,0.59,0.479,0.279c0.573-0.938,1.541-1.443,2.639-1.451c1.573-0.012,1.96,1.311,2.011,2.651
			c0.065,1.675-0.448,3.208-1.339,4.583c-0.198-0.13-0.515,0.025-0.522,0.285c-0.01,0.356,0.034,0.443,0.278,0.697
			c0.149,0.155,0.471,0.183,0.615,0c1.549-1.963,2.657-5.427,1.342-7.804c-0.086-0.157-0.186-0.296-0.294-0.42
			c3.423-2.7,6.698-5.692,9.631-8.94c-0.159,1.363,0.332,2.684,1.973,3.141C716.604,452.287,716.886,451.649,716.479,451.422"/>
		<path clip-path="url(#SVGID_66_)" fill="#F7931E" d="M728.675,440.474c-0.544-1.072-1.724-1.46-2.574-2.232
			c-0.323-0.295-0.738,0.07-0.575,0.442c0.322,0.741,1.031,0.953,1.652,1.401c1.228,0.886,1.177,2.568,0.389,3.726
			c-1.215,1.784-3.821,1.738-4.892,3.572c-0.936,1.601-0.208,3.539-0.385,5.267c-0.303,2.957-3.101,4.577-5.877,3.911
			c-0.383-0.092-0.529,0.457-0.161,0.585c2.168,0.756,4.592-0.001,5.933-1.873c0.656-0.914,0.973-1.988,0.996-3.107
			c0.028-1.334-0.443-2.938,0.174-4.189c0.626-1.271,2.373-1.511,3.464-2.251c0.869-0.589,1.624-1.391,1.985-2.392
			C729.135,442.419,729.12,441.351,728.675,440.474"/>
		<path clip-path="url(#SVGID_66_)" fill="#F7931E" d="M740.529,415.606c-0.546-2.602-1.418-5.799-4.102-6.801
			c1.682-1.982,1.226-5.104,0.33-7.379c-0.514-1.31-1.312-2.403-2.324-3.158c1.523-3.059,2.346-6.635,1.125-9.943
			c-0.508-1.374-1.329-2.648-2.447-3.605c-0.528-0.453-1.108-0.816-1.736-1.114c-0.782-0.37-1.789-0.664-2.275-1.438
			c-0.503-0.803-0.308-1.867-0.308-2.763c0-0.771-0.087-1.544-0.26-2.297c-0.351-1.522-1.07-2.96-1.98-4.224
			c-1.906-2.647-4.643-4.735-7.628-6.029c-2.066-0.896-4.332-1.426-6.535-1.254c-0.022-0.025-0.047-0.049-0.077-0.07
			c-0.143-0.098-0.28-0.2-0.415-0.307c0.013-0.082,0.004-0.168-0.041-0.25c-1.268-2.338-3.682-4.201-6.046-5.326
			c-1.624-0.772-3.796-1.521-5.783-1.514c0.032-0.095,0.034-0.199-0.01-0.289c-0.945-1.936-3.707-3.075-5.717-3.334
			c-2.163-0.279-4.275,0.308-6.059,1.498c-0.846-2.57-3.776-3.14-5.962-1.396c-2.335,1.859-2.518,5.371-0.759,7.66
			c-0.199,0.102-0.399,0.225-0.601,0.373c-1.96,1.441-2.034,4.078-0.808,5.974c-0.353,0.015-0.697,0.086-1.019,0.245
			c-1.109,0.547-1.356,1.889-0.928,2.962c0.495,1.243,1.706,1.774,2.942,2.015c-2.033,2.362-1.643,6.109-0.514,8.83
			c0.605,1.459,1.446,2.783,2.424,4.008c-2.398,0.207-3.505,3.439-3.712,5.517c-0.263,2.636,0.923,5.449,3.408,6.416
			c-1.506,1.16-2.111,3.099-2.23,5.008c-0.091,1.447-0.201,4.275,1.731,4.562c-2.702,4.302-1.968,10.117,1.253,14.029
			c-4.425,3.119-4.618,9.896-0.212,13.006c-2.681,0.528-3.284,4.92-2.202,7.148c-0.293,0.139-0.581,0.314-0.862,0.536
			c-2.963,2.332-2.493,6.86-1.395,10.026c0.62,1.791,1.571,3.459,2.803,4.873c-2.385,3.715-1.338,9.582,1.148,12.981
			c-0.133-0.024-0.285,0.033-0.351,0.196c-1.913,4.736-0.97,11.52,2.903,15.078c1.663,1.529,3.966,2.106,6.037,1.024
			c1.759-0.921,2.72-2.714,2.8-4.608c1.011,1.819,3.191,2.902,5.286,2.316c2.07-0.581,3.351-2.626,3.36-4.688
			c3.078,2.174,8.307-0.601,10.832-2.496c3.201-2.404,6.614-6.708,4.985-10.654c0.411,0.088,0.821,0.115,1.091,0.092
			c1.554-0.133,2.97-1.177,3.801-2.457c2.391-3.679,0.615-9.76,5.152-12.033c2.041-1.022,3.486-2.182,4.652-4.188
			c0.997-1.716,1.626-3.716,1.549-5.714c-0.107-2.801-1.639-4.844-3.496-6.657c2.546,0.037,5.277-1.498,5.993-4.041
			c0.55-1.951-0.197-4.078-1.789-5.226c1.914-0.854,2.924-3.043,2.633-5.156c-0.033-0.246-0.089-0.49-0.153-0.734
			c0.808-0.033,1.528-0.443,2.049-1.138C740.968,418.513,740.815,416.972,740.529,415.606 M737.736,419.948
			c-0.89-2.178-2.849-4.141-4.877-5.086c-0.125-1.837-0.956-3.646-2.431-4.956c1.924-2.321,1.584-5.776-0.689-7.801
			c-2.481-2.208-5.99-2.066-8.696-0.435c-0.341-3.473-4.555-5.379-4.626-8.965c-0.002-0.096-0.03-0.174-0.073-0.236
			c0.483-0.111,0.914-0.379,1.234-0.809c0.547-0.734,1.099-2.02,0.79-2.906c-0.106-0.306-0.602-0.367-0.679,0
			c-0.196,0.926-0.396,2.545-1.493,2.877c-1.085,0.328-2.859-0.778-2.374-1.987c0.093-0.232-0.249-0.403-0.408-0.237
			c-1.288,1.343,0.812,2.939,2.082,3.102c0.027,0.002,0.053,0.002,0.08,0.004c-0.026,0.055-0.042,0.119-0.041,0.193
			c0.012,3.916,4.937,5.906,4.628,9.786c-0.026,0.319,0.404,0.578,0.669,0.386c2.286-1.676,5.376-2.218,7.812-0.511
			c2.401,1.685,2.95,5.119,0.843,7.271c-0.152,0.156-0.189,0.476,0,0.623c3.393,2.666,3.249,7.248,0.264,10.146
			c-0.21,0.204,0.07,0.594,0.321,0.417c1.728-1.225,2.63-3.035,2.779-4.914c1.647,1.402,3.421,2.467,4.192,4.699
			c0.794,2.297-0.102,5.107-2.72,5.574c-0.471,0.084-0.361,0.713,0,0.852c1.916,0.73,2.772,3.1,2.103,4.98
			c-0.81,2.279-3.227,3.235-5.454,3.344c-0.089,0.005-0.154,0.038-0.203,0.085c-0.812-0.752-1.661-1.474-2.466-2.203
			c-2.032-1.844-3.602-3.955-5.005-6.302c-0.905-1.512-2.05-3.162-3.991-3.165c-0.073,0-0.135,0.016-0.188,0.041
			c-0.344-0.628-0.896-1.129-1.675-1.368c-0.354-0.107-0.641,0.373-0.365,0.627c0.687,0.632,1.351,1.093,1.613,2.053
			c0.266,0.973,0.003,1.924-0.536,2.747c-0.2,0.304,0.273,0.681,0.512,0.394c0.795-0.954,1.086-2.414,0.765-3.652
			c1.734,0.221,2.634,1.986,3.44,3.354c0.918,1.554,1.982,3.012,3.211,4.334c2.269,2.443,5.445,4.263,7.04,7.273
			c1.874,3.542,0.342,8.268-2.547,10.826c-1.292,1.145-3.072,1.439-4.231,2.771c-0.908,1.047-1.422,2.39-1.744,3.721
			c-0.485,2.006-0.507,4.133-1.266,6.072c-0.411,1.047-1.053,1.977-2.002,2.604c-0.436,0.289-0.92,0.512-1.433,0.624
			c-0.151,0.032-1.159,0.084-1.714-0.054c-0.097-0.162-0.205-0.322-0.322-0.481c-0.004-0.153-0.118-0.278-0.248-0.319
			c-0.012-0.016-0.023-0.031-0.035-0.045c-0.366-0.439-0.957,0.184-0.619,0.618c3.157,4.062-0.77,8.745-4.116,11.158
			c-2.305,1.662-7.934,4.771-10.279,1.624c-0.282-0.378-0.955-0.178-0.809,0.341c0.559,1.986-0.522,4.313-2.566,4.927
			c-2.06,0.616-4.305-0.763-4.99-2.718c-0.032-0.094-0.098-0.146-0.172-0.167c-0.125-0.431-0.908-0.32-0.844,0.154
			c0.319,2.375-0.751,4.844-3.258,5.432c-2.316,0.544-4.258-1.134-5.423-2.951c-2.426-3.781-2.613-8.332-1.54-12.576
			c0.005-0.019,0.007-0.037,0.009-0.054c1.355,1.716,3.229,2.955,5.351,3.505c1.765,0.457,4.077,0.521,5.784-0.361
			c0.063,0.615,0.363,1.199,1.005,1.685c1.806,1.366,4.564,0.649,6.414-0.205c2.557-1.183,4.414-3.272,5.541-5.825
			c1.04-2.354,2.147-8.574,5.859-7.429c0.54,0.167,0.719-0.619,0.227-0.823c-1.912-0.793-3.669,0.637-4.573,2.23
			c-1.307,2.303-1.757,4.992-3.149,7.257c-1.371,2.229-3.665,3.878-6.221,4.456c-1.074,0.243-2.436,0.376-3.415-0.256
			c-1.94-1.252-0.083-3.352,0.862-4.545c0.246-0.309-0.121-0.674-0.431-0.432c-0.869,0.68-1.737,1.767-2.03,2.877
			c-1.978,0.664-3.695,1.062-5.814,0.471c-2.027-0.566-3.789-1.821-5.008-3.536c-2.346-3.297-2.881-8.075-1.272-11.802
			c1.126,1.16,2.455,2.119,3.958,2.795c1.713,0.771,3.592,1.188,5.475,1.142c1.073-0.026,3.506-0.049,3.398-1.625
			c-0.028-0.409-0.693-0.565-0.767-0.104c-0.201,1.25-3.67,0.851-4.562,0.718c-1.532-0.228-3.01-0.754-4.344-1.54
			c-2.604-1.535-4.517-4.04-5.548-6.86c-0.952-2.603-1.554-6.249,0.325-8.581c1.151-1.429,2.927-1.832,4.589-1.033
			c1.305,0.627,2.072,1.726,2.979,2.752c-1.27,1.345,0.525,3.525,1.968,3.812c0.313,0.063,0.469-0.321,0.213-0.503
			c-0.708-0.504-2.347-1.762-1.578-2.689c0.213,0.121,0.448-0.093,0.405-0.328c0.449-0.263,0.982-0.334,1.491-0.254
			c0.581,0.094,0.911,0.422,1.403,0.686c0.337,0.182,0.698-0.182,0.518-0.518c-0.669-1.25-2.57-1.316-3.785-0.672
			c-1.339-2.287-4.074-4.15-6.592-3.408c-0.357-1.088-0.502-2.205-0.23-3.34c0.311-1.3,1.247-2.935,2.797-2.729
			c0.157,0.022,0.274-0.054,0.347-0.166c0.373-0.035,0.602-0.565,0.195-0.797c-4.797-2.72-5.263-9.442-0.407-12.418
			c0.253-0.155,0.282-0.482,0.09-0.697c-3.969-4.41-3.705-10.317-0.54-15.065c0.182-0.272-0.229-0.586-0.452-0.349
			c-0.293,0.312-0.559,0.636-0.806,0.972c-0.029-0.033-0.065-0.06-0.109-0.078c-1.559-0.683-1.277-3.033-1.11-4.434
			c0.21-1.758,0.936-3.41,2.615-4.195c0.334-0.156,0.263-0.75-0.106-0.812c-2.523-0.428-3.858-2.788-3.799-5.21
			c0.049-1.978,0.93-5.403,3.371-5.544c1.433,1.675,3.109,3.166,4.772,4.566c0.18,0.15,0.393,0.131,0.546,0.028
			c-0.126,0.089-0.244,0.198-0.353,0.332c-0.464,0.573-0.758,1.735-0.51,2.456c0.163,0.473,0.708,0.585,0.901,0.084
			c0.061-0.157-0.156-0.328-0.294-0.227c0.232-0.172,0.164-0.879,0.255-1.168c0.196-0.621,0.64-1.095,1.334-0.861
			c0.867,0.291,1.218,1.111,1.808,1.71c0.274,0.278,0.691-0.013,0.621-0.361c-0.293-1.461-2.402-2.882-3.727-1.989
			c0.184-0.146,0.26-0.414,0.033-0.619c-2.497-2.271-5.117-4.463-6.787-7.455c-1.604-2.871-2.653-7.497,0.262-9.926
			c0.326-0.272,0.03-0.727-0.314-0.758c-1.226-0.115-2.861-0.474-3.165-1.895c-0.495-2.315,2.344-1.586,3.487-1.026
			c2.067,1.011,3.691,2.708,5.248,4.359c0.263,0.28,0.765,0.067,0.759-0.313c-0.044-2.52,2.321-4.468,4.764-4.406
			c2.652,0.068,4.299,1.912,5.975,3.695c0.166,0.178,0.531-0.006,0.431-0.251c-1.078-2.634-4.257-4.594-7.1-4.293
			c-2.328,0.246-4.41,1.974-4.867,4.24c-1.227-1.276-2.52-2.511-4.049-3.413c-0.757-0.445-1.745-0.96-2.722-1.118
			c-0.833-1.659-1.171-3.798,0.408-5.149c2.04-1.745,3.934,0.037,5.159,1.717c0.224,0.307,0.886,0.263,0.824-0.223
			c-0.35-2.739,2.722-5.244,5.123-5.914c1.201-0.334,2.463-0.273,3.586,0.287c1.191,0.592,1.609,1.483,2.219,2.586
			c0.175,0.317,0.69,0.177,0.682-0.185c-0.06-2.93-4.002-4.144-6.348-3.637c-2.528,0.545-5.654,2.896-6.119,5.653
			c-1.148-1.269-2.59-2.219-4.183-1.779c-1.029-2.021-1.523-4.432,0.184-6.273c0.699-0.754,1.693-1.283,2.738-1.291
			c1.465-0.009,2.217,1.086,2.453,2.401c0.066,0.366,0.507,0.376,0.741,0.194c1.745-1.347,3.96-1.978,6.149-1.625
			c1.029,0.164,2.005,0.529,2.894,1.074c0.765,0.469,1.33,1.125,2.013,1.672c-0.407,0.041-0.803,0.114-1.178,0.236
			c-0.219,0.071-0.268,0.45,0,0.494c1.202,0.199,2.424,0.123,3.63,0.35c1.296,0.243,2.558,0.654,3.742,1.235
			c2.399,1.178,4.052,2.921,5.675,4.985c0.085,0.108,0.191,0.146,0.295,0.136c0.027,0.028,0.055,0.058,0.083,0.087
			c-1.077,0.172-2.131,0.521-3.129,1.095c-0.345,0.198-0.043,0.683,0.306,0.524c4.084-1.869,8.755-0.602,12.377,1.723
			c3.221,2.066,6.24,5.311,6.707,9.264c0.183,1.541-0.362,3.373,0.748,4.666c1.039,1.209,2.836,1.436,4.026,2.498
			c3.591,3.2,2.986,8.404,1.061,12.325c-0.852-0.45-1.82-0.682-2.876-0.639c1.133-2.653,0.937-5.755-0.54-8.267
			c-0.857-1.455-2.091-2.491-3.537-3.334c-1.844-1.074-3.935-2.002-4.819-4.037c0.68-0.578,0.971-1.512,0.938-2.389
			c-0.025-0.673-0.211-1.338-0.427-1.971c-0.112-0.326-0.183-0.626-0.55-0.721c-0.26-0.065-0.512,0.125-0.517,0.395l-0.002,0.07
			c-0.003,0.16,0.087,0.271,0.209,0.324c0.193,0.304,0.276,0.953,0.334,1.234c0.111,0.541,0.155,1.094-0.014,1.631
			c-0.15,0.471-0.5,0.971-1,1.111c-0.258,0.073-1.359-0.133-1.369-0.595c0.089-0.107,0.089-0.241-0.004-0.349l-0.04-0.047
			c-0.073-0.084-0.23-0.103-0.322-0.041c-0.54,0.36,0.002,1.17,0.366,1.449c0.561,0.43,1.295,0.492,1.917,0.21
			c1.029,3.093,4.781,3.833,6.92,5.989c2.482,2.502,3.002,6.558,1.335,9.633c-0.197,0.361,0.125,0.719,0.501,0.652
			c3.027-0.533,5.131,1.617,5.985,4.313c0.655,2.066,0.943,4.757-0.902,6.296c-0.25,0.209-0.117,0.678,0.195,0.74
			c2.289,0.459,3.252,2.605,3.798,4.654c0.268,1.008,0.616,2.13,0.618,3.179C739.879,418.515,739.223,420.146,737.736,419.948"/>
	</g>
</g>
</svg>
